<svg width="96" height="85" viewBox="0 0 96 85" fill="none" xmlns="http://www.w3.org/2000/svg">
<g clip-path="url(#clip0_704_1520)">
<path d="M71.7798 41.9502H69.5698V44.1002H71.7798V41.9502Z" fill="#E7DDD9"/>
<path d="M71.7798 26.8801L78.2998 24.8901H84.4198V27.0401H78.2998V29.2501H76.1998V39.7401H74.2098V41.9501H71.7798V37.2601V26.8801Z" fill="#E7DDD9"/>
<path d="M88.89 29.3599H86.96V31.2899H88.89V29.3599Z" fill="#E7DDD9"/>
<path d="M86.9599 27.04H84.4199V29.36H86.9599V27.04Z" fill="#E7DDD9"/>
<path d="M86.6702 35.6602V37.8402H88.8602V41.9102H86.6702V44.1002H82.6002V41.9102H80.4102V37.8402H82.6002V35.6602H86.6702Z" fill="#E7DDD9"/>
<path d="M69.5701 46.1201H66.3701V48.1601H69.5701V46.1201Z" fill="#E7DDD9"/>
<path d="M95.5198 59.0298H93.2798V61.2698H95.5198V59.0298Z" fill="#E7DDD9"/>
<path d="M73.9402 71.8299H78.1702V69.6499H80.4102V71.8899H78.2402V74.0699H74.0002V76.0799H71.7002V73.8499H73.9402V71.8299Z" fill="#E7DDD9"/>
<path d="M95.5198 52.6299H93.2798V56.8799H95.5198V52.6299Z" fill="#E7DDD9"/>
<path d="M80.3898 67.6802V65.4702H78.2298V67.5702H76.0898V69.8002H71.7798V67.5702H75.9898V65.3302H78.1598V63.2302H80.3898V52.6302H82.4898V50.4902H84.6398V48.1602H91.2398V50.3902H93.2798V52.6302H91.0398V50.7302H84.6998V67.5702H86.8498V69.8002H84.6998H84.1098H82.4898V67.6802H80.3898Z" fill="#E7DDD9"/>
<path d="M52.6 73.7202V75.9602H50.47V78.6902H47.57V75.9602H46.77V73.7202H52.6Z" fill="#E7DDD9"/>
<path d="M76.0898 46.2601H71.7798V44.1001H76.1398V46.1201H78.2798V48.4501H76.1398V50.4901H78.1298V52.5301H76.0898V50.4901H69.5698V48.1601H76.0898V46.2601Z" fill="#E7DDD9"/>
<path d="M82.6002 24.8901H78.3002V26.8801H76.3602V29.0901H73.9402V37.7501H72.1702V39.8001H61.1302V41.9501H69.5702V44.1001H67.4802V37.8101H61.1302V35.6601H35.5702V37.7501H31.4802V39.8501H29.2202V33.4501H31.4802V29.2001H33.4702V27.0401H35.5702V24.8901H37.6102V22.6801H39.8202V20.5801H44.0102V18.4301H48.3702V16.3301H67.3702V18.4901H74.1002V20.2001H78.1902V22.4101H82.6302L82.6002 24.8901Z" fill="#E7DDD9"/>
<path d="M37.7201 61.27H35.6201V63.37H37.7201V61.27Z" fill="#E7DDD9"/>
<path d="M35.6202 63.3701H33.4102V65.4701H35.6202V63.3701Z" fill="#E7DDD9"/>
<path d="M33.41 69.5502H35.68L35.62 71.8702H63.39V73.9702H50.58V75.9602H48.26V78.2202H63.28V80.4302H39.76V78.4402H35.62V76.1502H33.36V74.0202H31.48V65.4702H33.41V69.5502Z" fill="#E7DDD9"/>
<path d="M67.1398 75.96H63.2798V78.22H67.1398V75.96Z" fill="#E7DDD9"/>
<path d="M71.7798 73.8599H69.5698V76.0699H71.7798V73.8599Z" fill="#E7DDD9"/>
<path d="M86.6702 50.4902H84.7002V52.4602H86.6702V50.4902Z" fill="#E7DDD9"/>
<path d="M70.0102 69.6099H65.4302V71.9299H70.0102V69.6099Z" fill="#E7DDD9"/>
<path d="M84.7001 52.4902H82.6001V61.2702H84.7001V52.4902Z" fill="#E7DDD9"/>
<path d="M31.1002 41.9498V39.2998H35.4602V37.5898H61.1302V39.9098H46.2802V41.9498H48.2902V44.0998H63.3402V46.1498H67.5902V48.1598H63.2802V46.1498H29.2202V44.7598V44.0998V41.9498H31.1002Z" fill="#E7DDD9"/>
<path d="M37.7202 56.8799H33.4102V58.8999H37.7202V56.8799Z" fill="#E7DDD9"/>
<path d="M31.4302 54.7002H33.4102V56.8802H31.2302V54.7002H29.2202V52.4902H31.4302V54.7002Z" fill="#E7DDD9"/>
<path d="M80.4098 78.2202H78.2398V82.4302H71.7798V84.6602H76.0498V80.4302H80.4098V78.2202Z" fill="#E7DDD9"/>
<path d="M67.7198 82.3999V84.6599H35.6198V82.5399L33.4098 82.5799V80.4299H31.2798L31.4798 76.2099L33.3598 76.1499L33.4098 78.2199H35.6198V80.3999L39.9298 80.4299L39.8898 82.6199L67.7198 82.3999Z" fill="#E7DDD9"/>
<path d="M17.4093 23.7131L15.2686 25.0801L16.6355 27.2209L18.7763 25.8539L17.4093 23.7131Z" fill="#2D2E2D"/>
<path d="M12.9612 25.1479L11.7812 25.9014L12.5347 27.0813L13.7147 26.3279L12.9612 25.1479Z" fill="#2D2E2D"/>
<path d="M24.84 24.9299L25.73 25.6599L26.49 24.7299L29.14 26.8999L29.85 26.0299L28.89 25.2499L29.59 24.3899L27.87 22.9799L29.4 21.0899L28.41 20.2899L26.98 22.0499L26.11 21.3399L25.36 22.2699L21.84 19.3999L22.59 18.4699L21.64 17.6899L22.31 16.8599L21.48 16.1799L23.72 13.4299L22.67 12.5799L20.53 15.1999L19.73 14.5499L20.38 13.7399L19.4 12.9399L18.67 13.8299L17.96 13.2599L19.41 11.4599L17.56 9.94988L16.88 10.7899L15.89 9.97988L15.09 10.9699L14.26 10.2899L15.01 9.35988L14.11 8.62988L13.38 9.52988L12.49 8.79988L11.13 10.4699L10.17 9.68988L8.56 11.6599L7.7 10.9599L1.28 18.8299L2.3 19.6599L0.79 21.5199L1.56 22.1499L0 24.0599L0.93 24.8199L0.27 25.6199L1.2 26.3699L0.44 27.2999L1.34 28.0299L0.56 28.9899L1.42 29.6899L0.72 30.5599L2.57 32.0699L1.82 32.9899L3.64 34.4799L2.98 35.2799L10.09 41.0699L10.77 40.2399L12.68 41.7999L13.39 40.9299L14.96 42.2199L15.67 41.3499L16.68 42.1799L17.49 41.1899L14.71 38.9299L13.93 39.8899L13.13 39.2299L12.42 40.0999L11.53 39.3699L12.91 37.6699L13.87 38.4499L14.67 37.4599L16.37 38.8399L17.08 37.9799L17.91 38.6599L19.47 36.7399L20.46 37.5499L23.3 34.0599L22.44 33.3599L23.22 32.3999L22.11 31.4899L20.65 33.2799L19.1 32.0199L20.56 30.2299L21.46 30.9599L22.21 30.0399L21.29 29.2799L21.92 28.5099L20.96 27.7299L23.2 24.9799L24.16 25.7699L24.84 24.9299Z" fill="#E7DDD9"/>
<path d="M27.1602 16.3799L26.2402 15.6299L27.0202 14.6899L28.8202 16.1599L28.0502 17.1099L28.9502 17.8399L27.5202 19.5999L26.6402 18.8899L27.3702 17.9799L26.4602 17.2399L27.1602 16.3799Z" fill="#E7DDD9"/>
<path d="M21.6801 10.398L22.4824 9.41357L21.498 8.61124L20.6956 9.5957L21.6801 10.398Z" fill="#E7DDD9"/>
<path d="M28.4101 27.7898L26.5601 26.2798L25.8601 27.1498L26.7601 27.8898L26.0201 28.7498L26.8901 29.4598L25.3901 31.2998L26.3201 32.0598L28.5401 29.3398L27.7001 28.6598L28.4101 27.7898Z" fill="#2D2E2D"/>
<path d="M18.9583 8.11717L18.2002 9.04736L19.1304 9.80547L19.8885 8.87528L18.9583 8.11717Z" fill="#2D2E2D"/>
<path d="M17.3105 8.31169L16.584 9.20312L17.4754 9.92965L18.2019 9.03821L17.3105 8.31169Z" fill="#2D2E2D"/>
<path d="M15.7962 8.56334L15.1519 9.354L15.9425 9.9984L16.5869 9.20773L15.7962 8.56334Z" fill="#2D2E2D"/>
<path d="M15.1 27.27L13.5 29.24L15.43 30.82L14.6 31.83L15.78 32.8L16.74 31.62L15.6 30.68L17.07 28.88L15.1 27.27Z" fill="#2D2E2D"/>
<path d="M7.03018 26.0098L5.43018 27.9798L6.58018 28.9298L5.47018 30.2898L7.44018 31.8998L9.04018 29.9298L7.89018 28.9798L9.00018 27.6198L7.03018 26.0098Z" fill="#2D2E2D"/>
<path d="M3.48455 25.3919L1.87988 27.3608L2.71706 28.0431L4.32173 26.0742L3.48455 25.3919Z" fill="#2D2E2D"/>
<path d="M9.6304 12.401L8.02539 14.3696L8.86245 15.0521L10.4675 13.0834L9.6304 12.401Z" fill="#2D2E2D"/>
<path d="M3.16016 22.0498L4.15016 22.8598L3.35016 23.8398L5.03016 25.2098L6.63016 23.2398L5.74016 22.5098L7.15016 20.7898L5.37016 19.3398L3.16016 22.0498Z" fill="#2D2E2D"/>
<path d="M14.717 15.1999L13.3271 16.9053L15.0325 18.2951L16.4224 16.5898L14.717 15.1999Z" fill="#2D2E2D"/>
<path d="M18.6899 24.4298L17.9999 23.8598L17.8299 23.7198L17.7699 23.6798L17.0799 23.1098L14.9799 25.6798L14.9899 25.6898L12.0799 23.3198L12.3699 23.5598L14.4699 20.9898L15.2499 21.6198L15.8199 20.9298L17.6999 22.4598L18.3999 21.6098L15.7699 19.4698L15.2399 20.1298L14.2799 19.3398L13.5499 20.2398L12.7699 19.5998L10.6699 22.1698L11.3999 22.7598L10.6999 23.6098L14.3399 26.5798L15.0399 25.7298L15.8999 26.4298L16.6199 25.5498L17.3199 26.1198L18.6899 24.4298Z" fill="#2D2E2D"/>
<path d="M8.89855 15.0848L8.20361 15.9375L9.05629 16.6324L9.75123 15.7798L8.89855 15.0848Z" fill="#2D2E2D"/>
<path d="M20.3484 28.5035L19.584 29.4414L20.5219 30.2058L21.2864 29.2679L20.3484 28.5035Z" fill="#2D2E2D"/>
<path d="M20.1306 26.7549L19.3662 27.6929L20.3042 28.4573L21.0686 27.5193L20.1306 26.7549Z" fill="#2D2E2D"/>
<path d="M23.8202 24.0498L22.8802 23.2798L22.1302 24.2098L21.2902 23.5298L19.2402 26.0398L20.1802 26.7998L22.2202 24.2998L23.0502 24.9798L23.8202 24.0498Z" fill="#2D2E2D"/>
<path d="M38.6899 1.04004H38.1699V1.56004H38.6899V1.04004Z" fill="#E7DDD9"/>
<path d="M37.1299 2.60986H36.6099V3.12986H37.1299V2.60986Z" fill="#E7DDD9"/>
<path d="M38.6899 2.60986H38.1699V3.12986H38.6899V2.60986Z" fill="#E7DDD9"/>
<path d="M37.1299 1.04004H36.6099V1.56004H37.1299V1.04004Z" fill="#E7DDD9"/>
<path d="M30.3398 7.31006H29.8198V7.83006H30.3398V7.31006Z" fill="#E7DDD9"/>
<path d="M30.8598 6.79004H30.3398V7.31004H30.8598V6.79004Z" fill="#E7DDD9"/>
<path d="M31.3799 6.27002H30.8599V6.79002H31.3799V6.27002Z" fill="#E7DDD9"/>
<path d="M30.8598 4.18H30.3398V3.65V3.13H30.8598H31.3898H31.9098V2.61H32.4298V2.09V1.57V1.04V0.52V0H32.9498V0.52H33.4698V1.04V1.57V2.09V2.61H33.9998V3.13H34.5198H35.0398H35.5598V3.65H36.0798V4.18H35.5598H35.0398H34.5198H33.9998V4.7H33.4698V5.22V5.74V6.27V6.79V7.31H32.9498V6.79V6.27H32.4298V5.74V5.22V4.7H31.9098V4.18H31.3898H30.8598Z" fill="#E7DDD9"/>
<path d="M35.56 7.8302H36.08H36.61V7.3102H37.13V6.7902H37.65V6.2702V5.7402V5.2202V4.7002H38.17V5.2202V5.7402V6.2702V6.7902H38.7V7.3102H39.22V7.8302H39.74H40.26H40.78H41.31V8.3502H40.78V8.8802H40.26H39.74H39.22V9.4002H38.7V9.9202H38.17V10.4402V10.9602V11.4902V12.0102H37.65V11.4902V10.9602V10.4402V9.9202H37.13V9.4002H36.61V8.8802H36.08H35.56H35.04H34.52V8.3502V7.8302H35.04H35.56Z" fill="#E7DDD9"/>
<path d="M37.1299 2.60982V2.08982V1.56982H37.6499H38.1699V2.08982V2.60982H37.6499H37.1299Z" fill="#E7DDD9"/>
<path d="M40.2597 10.96H39.7397V11.48H40.2597V10.96Z" fill="#E7DDD9"/>
<path d="M40.2597 4.7002H39.7397V5.2202H40.2597V4.7002Z" fill="#E7DDD9"/>
<path d="M40.7798 11.4902H40.2598V12.0102H40.7798V11.4902Z" fill="#E7DDD9"/>
<path d="M40.7798 4.18018H40.2598V4.70018H40.7798V4.18018Z" fill="#E7DDD9"/>
<path d="M41.2998 12.0098H40.7798V12.5298H41.2998V12.0098Z" fill="#E7DDD9"/>
<path d="M41.2998 3.6499H40.7798V4.1699H41.2998V3.6499Z" fill="#E7DDD9"/>
</g>
<defs>
<clipPath id="clip0_704_1520">
<rect width="95.51" height="84.66" fill="white"/>
</clipPath>
</defs>
</svg>
