<svg width="81" height="88" viewBox="0 0 81 88" fill="none" xmlns="http://www.w3.org/2000/svg">
<g clip-path="url(#clip0_704_1350)">
<path d="M14.4601 47.6899V48.8299H16.7701V50.0799H19.1401V51.3199H21.6501V52.3199H22.6701V70.2499H21.6501V69.1499H19.4001V68.0899H16.9701V66.8999H14.5301V65.7499H12.1301V64.5699H9.63012V63.2599H7.12012V64.5699H9.62012V65.8799H12.0201V67.0599H14.4601V68.2099H16.9001V69.3999H19.1401V70.4599H21.6501V71.4399H22.8301V70.3999H23.9801V52.2999H22.8301V51.1399H21.6501V50.0099H19.2701V48.7699H16.9701V47.5199H14.6301V46.3799H12.1301V47.6899H14.4601Z" fill="#E7DED9"/>
<path d="M2.31006 39.1799H4.81006V40.3899H7.31006V39.0699H4.81006V37.8699H2.50006V36.6899H1.31006V37.8699H2.31006V39.1799Z" fill="#E7DED9"/>
<path d="M4.81 35.5303H2.5V36.6803H4.81V35.5303Z" fill="#E7DED9"/>
<path d="M9.53021 33.23H7.22021V34.38H9.53021V33.23Z" fill="#E7DED9"/>
<path d="M11.8398 32.0801H9.52979V33.2301H11.8398V32.0801Z" fill="#E7DED9"/>
<path d="M14.1601 30.9199H11.8501V32.0699H14.1601V30.9199Z" fill="#E7DED9"/>
<path d="M16.4702 29.77H14.1602V30.92H16.4702V29.77Z" fill="#E7DED9"/>
<path d="M18.7802 28.6201H16.4702V29.7701H18.7802V28.6201Z" fill="#E7DED9"/>
<path d="M21.1 27.46H18.79V28.61H21.1V27.46Z" fill="#E7DED9"/>
<path d="M28.9801 27.2301V26.3101H21.1001V27.4601H28.9801V28.3801H31.2901V27.2301H28.9801Z" fill="#E7DED9"/>
<path d="M35.9199 29.5303H33.6099V30.6803H35.9199V29.5303Z" fill="#E7DED9"/>
<path d="M40.55 32.8098V31.8398H38.23V32.9898H40.55V33.9598H42.86V32.8098H40.55Z" fill="#E7DED9"/>
<path d="M45.1699 33.96H42.8599V35.11H45.1699V33.96Z" fill="#E7DED9"/>
<path d="M47.4799 35.1201H45.1699V36.2701H47.4799V35.1201Z" fill="#E7DED9"/>
<path d="M49.4202 36.27H47.4902V37.42H49.4202V36.27Z" fill="#E7DED9"/>
<path d="M49.4101 65.8301H48.0601V66.9801H49.4101V65.8301Z" fill="#E7DED9"/>
<path d="M46.7101 67.9H45.3601V71.71H44.8001H44.5301H43.4501V72.86H41.1301V74.18H43.6301V72.86H44.5301V77.57H42.0201V78.88H39.8501V80.19H42.3501V78.88H44.5301V77.73H45.8801V71.71H46.7101V68.13H48.0601V66.98H46.7101V67.9Z" fill="#E7DED9"/>
<path d="M50.7699 37.4199H49.4199V65.8199H50.7699V37.4199Z" fill="#E7DED9"/>
<path d="M38.2299 30.6802H35.9199V31.8302H38.2299V30.6802Z" fill="#E7DED9"/>
<path d="M33.6 28.3799H31.29V29.5299H33.6V28.3799Z" fill="#E7DED9"/>
<path d="M7.22016 34.3799H4.91016V35.5299H7.22016V34.3799Z" fill="#E7DED9"/>
<path d="M9.81006 40.3901H7.31006V41.7001H9.81006V40.3901Z" fill="#E7DED9"/>
<path d="M41.0898 74.0698H38.5898V75.3798H41.0898V74.0698Z" fill="#E7DED9"/>
<path d="M37.3398 81.3899H34.8398V82.5399H32.5698V83.8499H35.0798V82.6999H37.3398V81.4999H39.8498V80.1899H37.3398V81.3899Z" fill="#E7DED9"/>
<path d="M30.07 84.9198H28V85.9498H26.55V81.3898H28.81V80.3598H31.32V79.0498H28.81V80.0798H26.55V48.8298H26.49V48.7698H28.87V47.4498H31.29V46.3798H33.7V45.3098H36.02V43.9998H38.33V42.6798H40.64V41.5298H42.96V40.3898H45.27V39.0698H42.77V40.2198H40.45V41.3698H38.14V42.6798H35.83V43.9998H33.51V45.0698H31.2V46.1398H28.79V47.4498H26.37V48.7698H24.15V47.4498H21.65V46.3798H19.27V45.0698H16.97V43.9998H14.63V42.6798H12.32V41.6998H9.82V43.0098H12.13V43.9998H14.46V45.3098H16.77V46.3798H19.14V47.6898H21.65V48.7698H23.98V50.0798H25.24V81.2198H24.17V80.0798H21.91V78.8798H19.76V77.7298H17.41V76.4198H14.63V75.1098H12.32V74.0698H9.82V75.3798H12.13V76.4198H14.46V77.7298H17.25V79.0498H19.4V80.1898H21.67V81.3898H24.17V82.5398H25.24V85.9498H24.17V84.9198H21.91V83.6098H19.4V82.5398H17.09V81.2198H14.63V80.0798H12.13V78.8798H9.82V77.5698H7.51V76.4198H5V77.7298H7.31V78.8798H9.62V80.1898H12.13V81.3898H14.59V82.5398H16.9V83.8498H19.4V84.9198H21.67V86.2298H24.17V87.2698H28.2V86.2298H30.5V85.1598H32.57V83.8498H30.07V84.9198Z" fill="#E7DED9"/>
<path d="M33.8198 77.7299H36.0898V76.6899H38.5898V75.3799H36.0898V76.4199H33.5798V77.7299H31.3198V79.0499H33.8198V77.7299Z" fill="#E7DED9"/>
<path d="M3.85 75.1101V71.7101H5.13V72.9401H7.31V74.0701H9.82V72.7601H7.63V71.6301H5.33V70.4001H2.56V69.0901H1.31V37.8701H0V69.4001H1.25V70.4001H2.5V70.8501V71.7101V75.1101V76.0401V76.4201H5V75.1101H3.85Z" fill="#E7DED9"/>
<path d="M48.74 37.9302H45.29V39.2402H48.74V37.9302Z" fill="#E7DED9"/>
<path d="M3.72002 61.9403H4.62002V63.2603H7.12002V61.9403H4.91002V60.7603H3.83002V42.9503H4.81002V44.0803H7.12002V45.3103H9.62002V46.3803H12.13V45.0703H9.63002V44.0003H7.31002V42.7703H4.91002V41.7603H3.72002V42.6803H2.52002V60.7803H3.72002V61.9403Z" fill="#E7DED9"/>
<g opacity="0.4">
<path d="M35.8502 26.5699V27.9899H38.7102V29.5299H41.6602V31.0799H44.7702V32.3199H46.0502V54.6099H44.7702V53.2299H41.9802V51.9099H38.9602V50.4399H35.9202V49.0099H32.9402V47.5399H29.8402V45.9099H26.7202V47.5399H29.8302V49.1699H32.8102V50.6399H35.8502V52.0699H38.8702V53.5399H41.6602V54.8599H44.7702V56.0799H46.2402V54.7899H47.6802V32.2999H46.2402V30.8499H44.7702V29.4499H41.8202V27.8999H38.9602V26.3599H36.0502V24.9399H32.9402V26.5699H35.8502Z" fill="#E7DED9"/>
<path d="M20.74 16.0001H23.85V17.4901H26.96V15.8601H23.85V14.3701H20.98V12.8901H19.5V14.3701H20.74V16.0001Z" fill="#E7DED9"/>
<path d="M23.85 11.46H20.98V12.89H23.85V11.46Z" fill="#E7DED9"/>
<path d="M29.7103 8.6001H26.8403V10.0301H29.7103V8.6001Z" fill="#E7DED9"/>
<path d="M32.5902 7.16016H29.7202V8.59016H32.5902V7.16016Z" fill="#E7DED9"/>
<path d="M35.4603 5.72998H32.5903V7.15998H35.4603V5.72998Z" fill="#E7DED9"/>
<path d="M38.3402 4.2998H35.4702V5.7298H38.3402V4.2998Z" fill="#E7DED9"/>
<path d="M41.2103 2.87012H38.3403V4.30012H41.2103V2.87012Z" fill="#E7DED9"/>
<path d="M44.0902 1.43018H41.2202V2.86018H44.0902V1.43018Z" fill="#E7DED9"/>
<path d="M53.8903 1.14V0H44.0903V1.43H53.8903V2.57H56.7603V1.14H53.8903Z" fill="#E7DED9"/>
<path d="M62.5101 4H59.6401V5.43H62.5101V4Z" fill="#E7DED9"/>
<path d="M68.2599 8.08012V6.87012H65.3799V8.30012H68.2599V9.51012H71.1299V8.08012H68.2599Z" fill="#E7DED9"/>
<path d="M73.9999 9.50977H71.1299V10.9398H73.9999V9.50977Z" fill="#E7DED9"/>
<path d="M76.8802 10.9399H74.0103V12.3699H76.8802V10.9399Z" fill="#E7DED9"/>
<path d="M79.2799 12.3799H76.8799V13.8099H79.2799V12.3799Z" fill="#E7DED9"/>
<path d="M79.2801 49.1099H77.6001V50.5399H79.2801V49.1099Z" fill="#E7DED9"/>
<path d="M75.9201 51.67H74.2401V56.42H73.5501H73.2001H71.8701V57.85H68.9801V59.48H72.0901V57.85H73.2001V63.69H70.0901V65.32H67.3901V66.95H70.5001V65.32H73.2001V63.9H74.8801V56.42H75.9201V51.97H77.6001V50.54H75.9201V51.67Z" fill="#E7DED9"/>
<path d="M80.9603 13.8101H79.2803V49.1101H80.9603V13.8101Z" fill="#E7DED9"/>
<path d="M65.3803 5.43018H62.5103V6.86018H65.3803V5.43018Z" fill="#E7DED9"/>
<path d="M59.6303 2.56982H56.7603V3.99982H59.6303V2.56982Z" fill="#E7DED9"/>
<path d="M26.8402 10.0298H23.9702V11.4598H26.8402V10.0298Z" fill="#E7DED9"/>
<path d="M30.07 17.4902H26.96V19.1202H30.07V17.4902Z" fill="#E7DED9"/>
<path d="M68.9401 59.3398H65.8301V60.9698H68.9401V59.3398Z" fill="#E7DED9"/>
<path d="M64.2801 68.4502H61.1601V69.8702H58.3501V71.5002H61.4601V70.0802H64.2801V68.5802H67.3901V66.9502H64.2801V68.4502Z" fill="#E7DED9"/>
<path d="M55.2303 72.8299H52.6703V74.1199H50.8603V68.4499H53.6803V67.1599H56.7903V65.5299H53.6803V66.8199H50.8603V27.9899H50.7903V27.8999H53.7503V26.2699H56.7603V24.9399H59.7503V23.6099H62.6303V21.9699H65.5003V20.3399H68.3803V18.9099H71.2503V17.4899H74.1303V15.8599H71.0203V17.2799H68.1403V18.7099H65.2703V20.3399H62.3903V21.9699H59.5203V23.3099H56.6403V24.6399H53.6503V26.2699H50.6403V27.8999H47.8803V26.2699H44.7703V24.9399H41.8203V23.3099H38.9603V21.9699H36.0503V20.3399H33.1903V19.1199H30.0703V20.7499H32.9403V21.9699H35.8503V23.6099H38.7103V24.9399H41.6603V26.5699H44.7703V27.8999H47.6803V29.5299H49.2303V68.2399H47.9103V66.8199H45.0903V65.3199H42.4303V63.8999H39.5103V62.2699H36.0503V60.6399H33.1903V59.3399H30.0703V60.9699H32.9403V62.2699H35.8503V63.8999H39.3103V65.5299H41.9803V66.9499H44.8003V68.4499H47.9103V69.8699H49.2303V74.1199H47.9103V72.8299H45.0903V71.1999H41.9803V69.8699H39.1203V68.2399H36.0503V66.8199H32.9403V65.3199H30.0703V63.6899H27.2003V62.2699H24.0903V63.8999H26.9603V65.3199H29.8303V66.9499H32.9403V68.4499H36.0003V69.8699H38.8703V71.4999H41.9803V72.8299H44.8003V74.4599H47.9103V75.7499H52.9103V74.4599H55.7803V73.1299H58.3503V71.4999H55.2303V72.8299Z" fill="#E7DED9"/>
<path d="M59.9 63.9002H62.72V62.6102H65.83V60.9702H62.72V62.2702H59.61V63.9002H56.79V65.5302H59.9V63.9002Z" fill="#E7DED9"/>
<path d="M22.6501 60.6401V56.4201H24.2501V57.9501H26.9601V59.3401H30.0701V57.7101H27.3601V56.3201H24.4901V54.7901H21.0601V53.1601H19.5001V14.3701H17.8701V53.5401H19.4301V54.7901H20.9801V55.3401V56.4201V60.6401V61.7901V62.2701H24.0901V60.6401H22.6501Z" fill="#E7DED9"/>
<path d="M78.4402 14.4302H74.1602V16.0602H78.4402V14.4302Z" fill="#E7DED9"/>
<path d="M22.5 44.2802H23.61V45.9102H26.72V44.2802H23.97V42.8102H22.63V20.6702H23.85V22.0802H26.72V23.6102H29.83V24.9402H32.94V23.3102H29.84V21.9702H26.96V20.4502H23.97V19.2002H22.5V20.3402H21V42.8302H22.5V44.2802Z" fill="#E7DED9"/>
</g>
</g>
<defs>
<clipPath id="clip0_704_1350">
<rect width="80.96" height="87.27" fill="white"/>
</clipPath>
</defs>
</svg>
