<?xml version="1.0" encoding="UTF-8"?><svg id="Layer_2" xmlns="http://www.w3.org/2000/svg" viewBox="0 0 128.59 138.12"><defs><style>.cls-1{fill:#f5f5f5;}</style></defs><g id="Layer_1-2"><path class="cls-1" d="m123.83,95.25v-4.76h-4.76v-4.76h-4.76v-4.76h-23.81v4.76h-9.53v4.76h-4.76v4.76h-4.76v9.52h-4.76v-14.29h4.76v-9.52h4.76v-4.76h38.1v-4.76h4.76v-4.76h4.76v-23.81h-9.52v-4.76h-4.76v-4.76s-4.76,0-4.76,0h-4.76v4.76h-4.76v4.76h-9.52v4.76h-4.76v4.76h-4.76v9.53h-4.76v14.29h-4.76v14.29h-4.76v-14.29h-4.76v-14.29h-4.76v-9.53h-4.76v-4.76h-4.76v-4.76h-9.52v-4.76h-4.76v-4.76h-9.53v4.76h-4.76v4.76H4.76v23.81h4.76v4.76h4.76v4.76h38.1v4.76h4.76v9.52h4.76v14.29h-4.76v-9.52h-4.76v-4.76h-4.76v-4.76h-9.53v-4.76H14.29v4.76h-4.76v4.76h-4.76v4.76H0v23.81h4.76v4.76h4.76v4.76h14.29v-4.76h9.53v-4.76h4.76v-9.53h4.76v-4.76h9.53v4.76h4.76v4.76h4.76v23.81h4.76v-23.81h4.76v-4.76h4.76v-4.76h9.53v4.76h4.76v9.53h4.76v4.76h9.53v4.76h14.29v-4.76h4.76v-4.76h4.76v-23.81h-4.76Zm-61.92,19.05v-9.53h4.76v9.53h-4.76Z"/><polygon class="cls-1" points="47.63 28.57 47.63 33.34 47.63 38.1 52.39 38.1 52.39 42.86 52.39 42.86 57.15 42.86 57.15 47.63 57.15 52.39 57.15 52.39 61.92 52.39 61.92 57.15 61.92 61.92 61.92 66.68 61.92 71.44 61.92 71.44 66.68 71.44 66.68 71.44 66.68 66.68 66.68 61.92 66.68 57.15 66.68 52.39 71.44 52.39 71.44 52.39 71.44 47.63 71.44 42.86 76.2 42.86 76.2 42.86 76.2 38.1 80.97 38.1 80.97 33.34 80.97 28.57 85.73 28.57 85.73 28.57 85.73 23.81 85.73 19.05 85.73 14.29 85.73 14.29 80.97 14.29 80.97 9.52 80.97 4.76 80.97 4.76 76.2 4.76 76.2 0 71.44 0 66.68 0 61.92 0 57.15 0 52.39 0 52.39 4.76 47.63 4.76 47.63 4.76 47.63 9.52 47.63 14.29 42.86 14.29 42.86 14.29 42.86 19.05 42.86 23.81 42.86 28.57 42.86 28.57 47.63 28.57"/></g></svg>