<svg width="111" height="189" viewBox="0 0 111 189" fill="none" xmlns="http://www.w3.org/2000/svg">
<g clip-path="url(#clip0_924_1684)">
<path d="M80.8293 85.3535H75.8328V90.3591H80.8293V85.3535Z" fill="#F37441"/>
<path d="M55.8331 60.321H50.832V65.3266H55.8331V60.321Z" fill="#F37441"/>
<path d="M110.826 95.3601H105.825V100.366H110.826V95.3601Z" fill="black"/>
<path d="M105.825 100.37H100.829V105.376H105.825V100.37Z" fill="black"/>
<path d="M105.825 95.3601H100.829V100.366H105.825V95.3601Z" fill="black"/>
<path d="M100.829 100.37H95.8279V105.376H100.829V100.37Z" fill="black"/>
<path d="M100.829 95.3601H95.8279V100.366H100.829V95.3601Z" fill="black"/>
<path d="M95.8324 175.458H90.8313V180.464H95.8324V175.458Z" fill="black"/>
<path d="M95.8324 100.37H90.8313V105.376H95.8324V100.37Z" fill="black"/>
<path d="M95.8324 95.3601H90.8313V100.366H95.8324V95.3601Z" fill="black"/>
<path d="M90.8314 175.458H85.8303V180.464H90.8314V175.458Z" fill="black"/>
<path d="M90.8314 170.458H85.8303V175.463H90.8314V170.458Z" fill="black"/>
<path d="M90.8314 100.37H85.8303V105.376H90.8314V100.37Z" fill="black"/>
<path d="M90.8314 95.3601H85.8303V100.366H90.8314V95.3601Z" fill="black"/>
<path d="M85.8304 175.458H80.8293V180.464H85.8304V175.458Z" fill="black"/>
<path d="M85.8304 170.458H80.8293V175.463H85.8304V170.458Z" fill="black"/>
<path d="M85.8304 165.448H80.8293V170.453H85.8304V165.448Z" fill="black"/>
<path d="M85.8304 160.442H80.8293V165.447H85.8304V160.442Z" fill="black"/>
<path d="M85.8304 155.436H80.8293V160.442H85.8304V155.436Z" fill="black"/>
<path d="M85.8304 150.431H80.8293V155.436H85.8304V150.431Z" fill="black"/>
<path d="M85.8304 145.425H80.8293V150.431H85.8304V145.425Z" fill="black"/>
<path d="M85.8304 140.415H80.8293V145.42H85.8304V140.415Z" fill="black"/>
<path d="M85.8304 100.37H80.8293V105.376H85.8304V100.37Z" fill="black"/>
<path d="M85.8304 95.3601H80.8293V100.366H85.8304V95.3601Z" fill="black"/>
<path d="M80.8293 175.458H75.8328V180.464H80.8293V175.458Z" fill="black"/>
<path d="M80.8293 170.458H75.8328V175.463H80.8293V170.458Z" fill="black"/>
<path d="M80.8293 165.448H75.8328V170.453H80.8293V165.448Z" fill="black"/>
<path d="M80.8293 160.442H75.8328V165.447H80.8293V160.442Z" fill="black"/>
<path d="M80.8293 155.436H75.8328V160.442H80.8293V155.436Z" fill="black"/>
<path d="M80.8293 150.431H75.8328V155.436H80.8293V150.431Z" fill="black"/>
<path d="M80.8293 145.425H75.8328V150.431H80.8293V145.425Z" fill="black"/>
<path d="M80.8293 140.415H75.8328V145.42H80.8293V140.415Z" fill="black"/>
<path d="M80.8293 135.409H75.8328V140.415H80.8293V135.409Z" fill="black"/>
<path d="M80.8293 130.408H75.8328V135.414H80.8293V130.408Z" fill="black"/>
<path d="M80.8293 125.403H75.8328V130.408H80.8293V125.403Z" fill="#F37441"/>
<path d="M80.8293 120.393H75.8328V125.398H80.8293V120.393Z" fill="#F37441"/>
<path d="M80.8293 115.387H75.8328V120.393H80.8293V115.387Z" fill="#F37441"/>
<path d="M80.8293 110.381H75.8328V115.387H80.8293V110.381Z" fill="#F37441"/>
<path d="M80.8293 105.376H75.8328V110.381H80.8293V105.376Z" fill="#F37441"/>
<path d="M80.8293 100.37H75.8328V105.376H80.8293V100.37Z" fill="black"/>
<path d="M80.8293 95.3601H75.8328V100.366H80.8293V95.3601Z" fill="black"/>
<path d="M80.8293 90.3591H75.8328V95.3647H80.8293V90.3591Z" fill="black"/>
<path d="M80.8293 80.3479H75.8328V85.3535H80.8293V80.3479Z" fill="#F37441"/>
<path d="M80.8293 75.3376H75.8328V80.3432H80.8293V75.3376Z" fill="#F37441"/>
<path d="M80.8293 70.3323H75.8328V75.3379H80.8293V70.3323Z" fill="#F37441"/>
<path d="M80.8293 65.3267H75.8328V70.3322H80.8293V65.3267Z" fill="#F37441"/>
<path d="M80.8293 60.321H75.8328V65.3266H80.8293V60.321Z" fill="#F37441"/>
<path d="M80.8293 55.3154H75.8328V60.321H80.8293V55.3154Z" fill="#F37441"/>
<path d="M80.8293 50.3098H75.8328V55.3154H80.8293V50.3098Z" fill="#F37441"/>
<path d="M75.8328 170.458H70.8318V175.463H75.8328V170.458Z" fill="black"/>
<path d="M75.8328 165.448H70.8318V170.453H75.8328V165.448Z" fill="black"/>
<path d="M75.8328 160.442H70.8318V165.447H75.8328V160.442Z" fill="black"/>
<path d="M75.8328 155.436H70.8318V160.442H75.8328V155.436Z" fill="black"/>
<path d="M75.8328 150.431H70.8318V155.436H75.8328V150.431Z" fill="black"/>
<path d="M75.8328 145.425H70.8318V150.431H75.8328V145.425Z" fill="black"/>
<path d="M75.8328 140.415H70.8318V145.42H75.8328V140.415Z" fill="black"/>
<path d="M75.8328 135.409H70.8318V140.415H75.8328V135.409Z" fill="black"/>
<path d="M75.8328 130.408H70.8318V135.414H75.8328V130.408Z" fill="black"/>
<path d="M75.8328 125.403H70.8318V130.408H75.8328V125.403Z" fill="black"/>
<path d="M75.8328 120.393H70.8318V125.398H75.8328V120.393Z" fill="#F37441"/>
<path d="M75.8328 115.387H70.8318V120.393H75.8328V115.387Z" fill="#F37441"/>
<path d="M75.8328 110.381H70.8318V115.387H75.8328V110.381Z" fill="#F37441"/>
<path d="M75.8328 105.376H70.8318V110.381H75.8328V105.376Z" fill="#F37441"/>
<path d="M75.8328 100.37H70.8318V105.376H75.8328V100.37Z" fill="black"/>
<path d="M75.8328 95.3601H70.8318V100.366H75.8328V95.3601Z" fill="black"/>
<path d="M75.8328 90.3591H70.8318V95.3647H75.8328V90.3591Z" fill="black"/>
<path d="M75.8328 85.3535H70.8318V90.3591H75.8328V85.3535Z" fill="black"/>
<path d="M75.8328 80.3479H70.8318V85.3535H75.8328V80.3479Z" fill="black"/>
<path d="M75.8328 75.3376H70.8318V80.3432H75.8328V75.3376Z" fill="#F37441"/>
<path d="M75.8328 70.3323H70.8318V75.3379H75.8328V70.3323Z" fill="#F37441"/>
<path d="M75.8328 65.3267H70.8318V70.3322H75.8328V65.3267Z" fill="#F37441"/>
<path d="M75.8328 60.321H70.8318V65.3266H75.8328V60.321Z" fill="black"/>
<path d="M75.8328 55.3154H70.8318V60.321H75.8328V55.3154Z" fill="black"/>
<path d="M75.8328 50.3098H70.8318V55.3154H75.8328V50.3098Z" fill="black"/>
<path d="M75.8328 45.3044H70.8318V50.31H75.8328V45.3044Z" fill="#F37441"/>
<path d="M70.8316 170.458H65.8306V175.463H70.8316V170.458Z" fill="#F37441"/>
<path d="M70.8316 165.448H65.8306V170.453H70.8316V165.448Z" fill="black"/>
<path d="M70.8316 160.442H65.8306V165.447H70.8316V160.442Z" fill="#F37441"/>
<path d="M70.8316 155.436H65.8306V160.442H70.8316V155.436Z" fill="#F37441"/>
<path d="M70.8316 150.431H65.8306V155.436H70.8316V150.431Z" fill="#F37441"/>
<path d="M70.8316 145.425H65.8306V150.431H70.8316V145.425Z" fill="black"/>
<path d="M70.8316 140.415H65.8306V145.42H70.8316V140.415Z" fill="black"/>
<path d="M70.8316 135.409H65.8306V140.415H70.8316V135.409Z" fill="black"/>
<path d="M70.8316 130.408H65.8306V135.414H70.8316V130.408Z" fill="black"/>
<path d="M70.8316 125.403H65.8306V130.408H70.8316V125.403Z" fill="black"/>
<path d="M70.8316 120.393H65.8306V125.398H70.8316V120.393Z" fill="black"/>
<path d="M70.8316 115.387H65.8306V120.393H70.8316V115.387Z" fill="#F37441"/>
<path d="M70.8316 110.381H65.8306V115.387H70.8316V110.381Z" fill="#F37441"/>
<path d="M70.8316 105.376H65.8306V110.381H70.8316V105.376Z" fill="#F37441"/>
<path d="M70.8316 100.37H65.8306V105.376H70.8316V100.37Z" fill="#F37441"/>
<path d="M70.8316 95.3601H65.8306V100.366H70.8316V95.3601Z" fill="black"/>
<path d="M70.8316 90.3591H65.8306V95.3647H70.8316V90.3591Z" fill="black"/>
<path d="M70.8316 85.3535H65.8306V90.3591H70.8316V85.3535Z" fill="black"/>
<path d="M70.8316 80.3479H65.8306V85.3535H70.8316V80.3479Z" fill="black"/>
<path d="M70.8316 75.3376H65.8306V80.3432H70.8316V75.3376Z" fill="black"/>
<path d="M70.8316 70.3323H65.8306V75.3379H70.8316V70.3323Z" fill="#F37441"/>
<path d="M70.8316 65.3267H65.8306V70.3322H70.8316V65.3267Z" fill="black"/>
<path d="M70.8316 60.321H65.8306V65.3266H70.8316V60.321Z" fill="black"/>
<path d="M70.8316 55.3154H65.8306V60.321H70.8316V55.3154Z" fill="black"/>
<path d="M70.8316 50.3098H65.8306V55.3154H70.8316V50.3098Z" fill="black"/>
<path d="M70.8316 45.3044H65.8306V50.31H70.8316V45.3044Z" fill="black"/>
<path d="M70.8316 40.2986H65.8306V45.3042H70.8316V40.2986Z" fill="#F37441"/>
<path d="M65.8306 175.458H60.8296V180.464H65.8306V175.458Z" fill="#F37441"/>
<path d="M65.8306 170.458H60.8296V175.463H65.8306V170.458Z" fill="#F37441"/>
<path d="M65.8306 165.448H60.8296V170.453H65.8306V165.448Z" fill="#F37441"/>
<path d="M65.8306 160.442H60.8296V165.447H65.8306V160.442Z" fill="#F37441"/>
<path d="M65.8306 155.436H60.8296V160.442H65.8306V155.436Z" fill="#F37441"/>
<path d="M65.8306 150.431H60.8296V155.436H65.8306V150.431Z" fill="#F37441"/>
<path d="M65.8306 145.425H60.8296V150.431H65.8306V145.425Z" fill="#F37441"/>
<path d="M65.8306 140.415H60.8296V145.42H65.8306V140.415Z" fill="#F37441"/>
<path d="M65.8306 135.409H60.8296V140.415H65.8306V135.409Z" fill="black"/>
<path d="M65.8306 130.408H60.8296V135.414H65.8306V130.408Z" fill="black"/>
<path d="M65.8306 125.403H60.8296V130.408H65.8306V125.403Z" fill="black"/>
<path d="M65.8306 120.393H60.8296V125.398H65.8306V120.393Z" fill="black"/>
<path d="M65.8306 115.387H60.8296V120.393H65.8306V115.387Z" fill="black"/>
<path d="M65.8306 110.381H60.8296V115.387H65.8306V110.381Z" fill="#F37441"/>
<path d="M65.8306 105.376H60.8296V110.381H65.8306V105.376Z" fill="#F37441"/>
<path d="M65.8306 100.37H60.8296V105.376H65.8306V100.37Z" fill="black"/>
<path d="M65.8306 95.3601H60.8296V100.366H65.8306V95.3601Z" fill="black"/>
<path d="M65.8306 90.3591H60.8296V95.3647H65.8306V90.3591Z" fill="black"/>
<path d="M65.8306 85.3535H60.8296V90.3591H65.8306V85.3535Z" fill="black"/>
<path d="M65.8306 80.3479H60.8296V85.3535H65.8306V80.3479Z" fill="black"/>
<path d="M65.8306 75.3376H60.8296V80.3432H65.8306V75.3376Z" fill="black"/>
<path d="M65.8306 70.3323H60.8296V75.3379H65.8306V70.3323Z" fill="black"/>
<path d="M65.8306 65.3267H60.8296V70.3322H65.8306V65.3267Z" fill="black"/>
<path d="M65.8306 60.321H60.8296V65.3266H65.8306V60.321Z" fill="black"/>
<path d="M65.8306 55.3154H60.8296V60.321H65.8306V55.3154Z" fill="black"/>
<path d="M65.8306 50.3098H60.8296V55.3154H65.8306V50.3098Z" fill="black"/>
<path d="M65.8306 45.3044H60.8296V50.31H65.8306V45.3044Z" fill="black"/>
<path d="M65.8306 40.2986H60.8296V45.3042H65.8306V40.2986Z" fill="#F37441"/>
<path d="M65.8306 35.293H60.8296V40.2986H65.8306V35.293Z" fill="#F37441"/>
<path d="M60.8295 180.464H55.833V185.47H60.8295V180.464Z" fill="#F37441"/>
<path d="M60.8295 175.458H55.833V180.464H60.8295V175.458Z" fill="#F37441"/>
<path d="M60.8295 170.458H55.833V175.463H60.8295V170.458Z" fill="#F37441"/>
<path d="M60.8295 165.448H55.833V170.453H60.8295V165.448Z" fill="#F37441"/>
<path d="M60.8295 160.442H55.833V165.447H60.8295V160.442Z" fill="#F37441"/>
<path d="M60.8295 155.436H55.833V160.442H60.8295V155.436Z" fill="#F37441"/>
<path d="M60.8295 150.431H55.833V155.436H60.8295V150.431Z" fill="#F37441"/>
<path d="M60.8295 145.425H55.833V150.431H60.8295V145.425Z" fill="#F37441"/>
<path d="M60.8295 140.415H55.833V145.42H60.8295V140.415Z" fill="#F37441"/>
<path d="M60.8295 135.409H55.833V140.415H60.8295V135.409Z" fill="#F37441"/>
<path d="M60.8295 130.408H55.833V135.414H60.8295V130.408Z" fill="black"/>
<path d="M60.8295 125.403H55.833V130.408H60.8295V125.403Z" fill="black"/>
<path d="M60.8295 120.393H55.833V125.398H60.8295V120.393Z" fill="black"/>
<path d="M60.8295 115.387H55.833V120.393H60.8295V115.387Z" fill="black"/>
<path d="M60.8295 110.381H55.833V115.387H60.8295V110.381Z" fill="black"/>
<path d="M60.8295 105.376H55.833V110.381H60.8295V105.376Z" fill="black"/>
<path d="M60.8295 100.37H55.833V105.376H60.8295V100.37Z" fill="black"/>
<path d="M60.8295 95.3601H55.833V100.366H60.8295V95.3601Z" fill="black"/>
<path d="M60.8295 90.3591H55.833V95.3647H60.8295V90.3591Z" fill="black"/>
<path d="M60.8295 85.3535H55.833V90.3591H60.8295V85.3535Z" fill="black"/>
<path d="M60.8295 80.3479H55.833V85.3535H60.8295V80.3479Z" fill="black"/>
<path d="M60.8295 75.3376H55.833V80.3432H60.8295V75.3376Z" fill="black"/>
<path d="M60.8295 70.3323H55.833V75.3379H60.8295V70.3323Z" fill="black"/>
<path d="M60.8295 65.3267H55.833V70.3322H60.8295V65.3267Z" fill="black"/>
<path d="M60.8295 60.321H55.833V65.3266H60.8295V60.321Z" fill="black"/>
<path d="M60.8295 55.3154H55.833V60.321H60.8295V55.3154Z" fill="black"/>
<path d="M60.8295 50.3098H55.833V55.3154H60.8295V50.3098Z" fill="black"/>
<path d="M60.8295 45.3044H55.833V50.31H60.8295V45.3044Z" fill="black"/>
<path d="M60.8295 40.2986H55.833V45.3042H60.8295V40.2986Z" fill="#F37441"/>
<path d="M60.8295 35.293H55.833V40.2986H60.8295V35.293Z" fill="#F37441"/>
<path d="M60.8295 30.283H55.833V35.2885H60.8295V30.283Z" fill="#F37441"/>
<path d="M55.8331 185.47H50.832V190.475H55.8331V185.47Z" fill="#F37441"/>
<path d="M55.8331 180.464H50.832V185.47H55.8331V180.464Z" fill="#F37441"/>
<path d="M55.8331 175.458H50.832V180.464H55.8331V175.458Z" fill="#F37441"/>
<path d="M55.8331 170.458H50.832V175.463H55.8331V170.458Z" fill="#F37441"/>
<path d="M55.8331 165.448H50.832V170.453H55.8331V165.448Z" fill="#F37441"/>
<path d="M55.8331 160.442H50.832V165.447H55.8331V160.442Z" fill="#F37441"/>
<path d="M55.8331 155.436H50.832V160.442H55.8331V155.436Z" fill="#F37441"/>
<path d="M55.8331 150.431H50.832V155.436H55.8331V150.431Z" fill="#F37441"/>
<path d="M55.8331 145.425H50.832V150.431H55.8331V145.425Z" fill="#F37441"/>
<path d="M55.8331 140.415H50.832V145.42H55.8331V140.415Z" fill="#F37441"/>
<path d="M55.8331 135.409H50.832V140.415H55.8331V135.409Z" fill="#F37441"/>
<path d="M55.8331 130.408H50.832V135.414H55.8331V130.408Z" fill="black"/>
<path d="M55.8331 125.403H50.832V130.408H55.8331V125.403Z" fill="black"/>
<path d="M55.8331 120.393H50.832V125.398H55.8331V120.393Z" fill="black"/>
<path d="M55.8331 115.387H50.832V120.393H55.8331V115.387Z" fill="black"/>
<path d="M55.8331 110.381H50.832V115.387H55.8331V110.381Z" fill="black"/>
<path d="M55.8331 105.376H50.832V110.381H55.8331V105.376Z" fill="black"/>
<path d="M55.8331 100.37H50.832V105.376H55.8331V100.37Z" fill="black"/>
<path d="M55.8331 95.3601H50.832V100.366H55.8331V95.3601Z" fill="black"/>
<path d="M55.8331 90.3591H50.832V95.3647H55.8331V90.3591Z" fill="black"/>
<path d="M55.8331 85.3535H50.832V90.3591H55.8331V85.3535Z" fill="black"/>
<path d="M55.8331 80.3479H50.832V85.3535H55.8331V80.3479Z" fill="black"/>
<path d="M55.8331 75.3376H50.832V80.3432H55.8331V75.3376Z" fill="black"/>
<path d="M55.8331 70.3323H50.832V75.3379H55.8331V70.3323Z" fill="black"/>
<path d="M55.8331 65.3267H50.832V70.3322H55.8331V65.3267Z" fill="black"/>
<path d="M55.8331 55.3154H50.832V60.321H55.8331V55.3154Z" fill="black"/>
<path d="M55.8331 50.3098H50.832V55.3154H55.8331V50.3098Z" fill="black"/>
<path d="M55.8331 45.3044H50.832V50.31H55.8331V45.3044Z" fill="#F37441"/>
<path d="M55.8331 40.2986H50.832V45.3042H55.8331V40.2986Z" fill="#F37441"/>
<path d="M55.8331 35.293H50.832V40.2986H55.8331V35.293Z" fill="#F37441"/>
<path d="M55.8331 30.283H50.832V35.2885H55.8331V30.283Z" fill="#F37441"/>
<path d="M55.8331 25.2773H50.832V30.2829H55.8331V25.2773Z" fill="#F37441"/>
<path d="M50.8319 185.47H45.8308V190.475H50.8319V185.47Z" fill="#F37441"/>
<path d="M50.8319 180.464H45.8308V185.47H50.8319V180.464Z" fill="#F37441"/>
<path d="M50.8319 175.458H45.8308V180.464H50.8319V175.458Z" fill="#F37441"/>
<path d="M50.8319 170.458H45.8308V175.463H50.8319V170.458Z" fill="#F37441"/>
<path d="M50.8319 165.448H45.8308V170.453H50.8319V165.448Z" fill="#F37441"/>
<path d="M50.8319 160.442H45.8308V165.447H50.8319V160.442Z" fill="#F37441"/>
<path d="M50.8319 155.436H45.8308V160.442H50.8319V155.436Z" fill="#F37441"/>
<path d="M50.8319 150.431H45.8308V155.436H50.8319V150.431Z" fill="#F37441"/>
<path d="M50.8319 145.425H45.8308V150.431H50.8319V145.425Z" fill="#F37441"/>
<path d="M50.8319 140.415H45.8308V145.42H50.8319V140.415Z" fill="#F37441"/>
<path d="M50.8319 135.409H45.8308V140.415H50.8319V135.409Z" fill="#F37441"/>
<path d="M50.8319 130.408H45.8308V135.414H50.8319V130.408Z" fill="#F37441"/>
<path d="M50.8319 125.403H45.8308V130.408H50.8319V125.403Z" fill="#F37441"/>
<path d="M50.8319 120.393H45.8308V125.398H50.8319V120.393Z" fill="#F37441"/>
<path d="M50.8319 115.387H45.8308V120.393H50.8319V115.387Z" fill="#F37441"/>
<path d="M50.8319 110.381H45.8308V115.387H50.8319V110.381Z" fill="#F37441"/>
<path d="M50.8319 105.376H45.8308V110.381H50.8319V105.376Z" fill="#F37441"/>
<path d="M50.8319 100.37H45.8308V105.376H50.8319V100.37Z" fill="#F37441"/>
<path d="M50.8319 95.3601H45.8308V100.366H50.8319V95.3601Z" fill="#F37441"/>
<path d="M50.8319 90.3591H45.8308V95.3647H50.8319V90.3591Z" fill="#F37441"/>
<path d="M50.8319 85.3535H45.8308V90.3591H50.8319V85.3535Z" fill="#F37441"/>
<path d="M50.8319 80.3479H45.8308V85.3535H50.8319V80.3479Z" fill="#F37441"/>
<path d="M50.8319 75.3376H45.8308V80.3432H50.8319V75.3376Z" fill="#F37441"/>
<path d="M50.8319 70.3323H45.8308V75.3379H50.8319V70.3323Z" fill="#F37441"/>
<path d="M50.8319 65.3267H45.8308V70.3322H50.8319V65.3267Z" fill="#F37441"/>
<path d="M50.8319 60.321H45.8308V65.3266H50.8319V60.321Z" fill="#F37441"/>
<path d="M50.8319 55.3154H45.8308V60.321H50.8319V55.3154Z" fill="#F37441"/>
<path d="M50.8319 50.3098H45.8308V55.3154H50.8319V50.3098Z" fill="#F37441"/>
<path d="M50.8319 45.3044H45.8308V50.31H50.8319V45.3044Z" fill="#F37441"/>
<path d="M50.8319 40.2986H45.8308V45.3042H50.8319V40.2986Z" fill="#F37441"/>
<path d="M50.8319 35.293H45.8308V40.2986H50.8319V35.293Z" fill="#F37441"/>
<path d="M50.8319 30.283H45.8308V35.2885H50.8319V30.283Z" fill="#F37441"/>
<path d="M50.8319 25.2773H45.8308V30.2829H50.8319V25.2773Z" fill="#F37441"/>
<path d="M50.8319 20.2717H45.8308V25.2773H50.8319V20.2717Z" fill="#F37441"/>
<path d="M45.8309 185.47H40.8298V190.475H45.8309V185.47Z" fill="#F37441"/>
<path d="M45.8309 180.464H40.8298V185.47H45.8309V180.464Z" fill="#F37441"/>
<path d="M45.8309 175.458H40.8298V180.464H45.8309V175.458Z" fill="#F37441"/>
<path d="M45.8309 170.458H40.8298V175.463H45.8309V170.458Z" fill="#F37441"/>
<path d="M45.8309 165.448H40.8298V170.453H45.8309V165.448Z" fill="#F37441"/>
<path d="M45.8309 160.442H40.8298V165.447H45.8309V160.442Z" fill="#F37441"/>
<path d="M45.8309 155.436H40.8298V160.442H45.8309V155.436Z" fill="#F37441"/>
<path d="M45.8309 150.431H40.8298V155.436H45.8309V150.431Z" fill="#F37441"/>
<path d="M45.8309 145.425H40.8298V150.431H45.8309V145.425Z" fill="#F37441"/>
<path d="M45.8309 140.415H40.8298V145.42H45.8309V140.415Z" fill="#F37441"/>
<path d="M45.8309 135.409H40.8298V140.415H45.8309V135.409Z" fill="#F37441"/>
<path d="M45.8309 130.408H40.8298V135.414H45.8309V130.408Z" fill="#F37441"/>
<path d="M45.8309 125.403H40.8298V130.408H45.8309V125.403Z" fill="#F37441"/>
<path d="M45.8309 120.393H40.8298V125.398H45.8309V120.393Z" fill="#F37441"/>
<path d="M45.8309 115.387H40.8298V120.393H45.8309V115.387Z" fill="#F37441"/>
<path d="M45.8309 110.381H40.8298V115.387H45.8309V110.381Z" fill="#F37441"/>
<path d="M45.8309 105.376H40.8298V110.381H45.8309V105.376Z" fill="#F37441"/>
<path d="M45.8309 100.37H40.8298V105.376H45.8309V100.37Z" fill="#F37441"/>
<path d="M45.8309 95.3601H40.8298V100.366H45.8309V95.3601Z" fill="#F37441"/>
<path d="M45.8309 90.3591H40.8298V95.3647H45.8309V90.3591Z" fill="#F37441"/>
<path d="M45.8309 85.3535H40.8298V90.3591H45.8309V85.3535Z" fill="#F37441"/>
<path d="M45.8309 80.3479H40.8298V85.3535H45.8309V80.3479Z" fill="#F37441"/>
<path d="M45.8309 75.3376H40.8298V80.3432H45.8309V75.3376Z" fill="#F37441"/>
<path d="M45.8309 70.3323H40.8298V75.3379H45.8309V70.3323Z" fill="#F37441"/>
<path d="M45.8309 65.3267H40.8298V70.3322H45.8309V65.3267Z" fill="#F37441"/>
<path d="M45.8309 60.321H40.8298V65.3266H45.8309V60.321Z" fill="#F37441"/>
<path d="M45.8309 55.3154H40.8298V60.321H45.8309V55.3154Z" fill="#F37441"/>
<path d="M45.8309 50.3098H40.8298V55.3154H45.8309V50.3098Z" fill="#F37441"/>
<path d="M45.8309 45.3044H40.8298V50.31H45.8309V45.3044Z" fill="#F37441"/>
<path d="M45.8309 40.2986H40.8298V45.3042H45.8309V40.2986Z" fill="#F37441"/>
<path d="M45.8309 35.293H40.8298V40.2986H45.8309V35.293Z" fill="#F37441"/>
<path d="M45.8309 30.283H40.8298V35.2885H45.8309V30.283Z" fill="#F37441"/>
<path d="M45.8309 25.2773H40.8298V30.2829H45.8309V25.2773Z" fill="#F37441"/>
<path d="M45.8309 20.2717H40.8298V25.2773H45.8309V20.2717Z" fill="#F37441"/>
<path d="M45.8309 15.2708H40.8298V20.2763H45.8309V15.2708Z" fill="#F37441"/>
<path d="M40.8298 185.47H35.8333V190.475H40.8298V185.47Z" fill="#F37441"/>
<path d="M40.8298 180.464H35.8333V185.47H40.8298V180.464Z" fill="#F37441"/>
<path d="M40.8298 175.458H35.8333V180.464H40.8298V175.458Z" fill="#F37441"/>
<path d="M40.8298 170.458H35.8333V175.463H40.8298V170.458Z" fill="#F37441"/>
<path d="M40.8298 165.448H35.8333V170.453H40.8298V165.448Z" fill="#F37441"/>
<path d="M40.8298 160.442H35.8333V165.447H40.8298V160.442Z" fill="#F37441"/>
<path d="M40.8298 155.436H35.8333V160.442H40.8298V155.436Z" fill="#F37441"/>
<path d="M40.8298 150.431H35.8333V155.436H40.8298V150.431Z" fill="#F37441"/>
<path d="M40.8298 145.425H35.8333V150.431H40.8298V145.425Z" fill="#F37441"/>
<path d="M40.8298 140.415H35.8333V145.42H40.8298V140.415Z" fill="#F37441"/>
<path d="M40.8298 135.409H35.8333V140.415H40.8298V135.409Z" fill="#F37441"/>
<path d="M40.8298 130.408H35.8333V135.414H40.8298V130.408Z" fill="#F37441"/>
<path d="M40.8298 125.403H35.8333V130.408H40.8298V125.403Z" fill="#F37441"/>
<path d="M40.8298 120.393H35.8333V125.398H40.8298V120.393Z" fill="#F37441"/>
<path d="M40.8298 115.387H35.8333V120.393H40.8298V115.387Z" fill="#F37441"/>
<path d="M40.8298 110.381H35.8333V115.387H40.8298V110.381Z" fill="#F37441"/>
<path d="M40.8298 105.376H35.8333V110.381H40.8298V105.376Z" fill="#F37441"/>
<path d="M40.8298 100.37H35.8333V105.376H40.8298V100.37Z" fill="#F37441"/>
<path d="M40.8298 95.3601H35.8333V100.366H40.8298V95.3601Z" fill="#F37441"/>
<path d="M40.8298 90.3591H35.8333V95.3647H40.8298V90.3591Z" fill="#F37441"/>
<path d="M40.8298 85.3535H35.8333V90.3591H40.8298V85.3535Z" fill="#F37441"/>
<path d="M40.8298 80.3479H35.8333V85.3535H40.8298V80.3479Z" fill="#F37441"/>
<path d="M40.8298 75.3376H35.8333V80.3432H40.8298V75.3376Z" fill="#F37441"/>
<path d="M40.8298 70.3323H35.8333V75.3379H40.8298V70.3323Z" fill="#F37441"/>
<path d="M40.8298 65.3267H35.8333V70.3322H40.8298V65.3267Z" fill="#F37441"/>
<path d="M40.8298 60.321H35.8333V65.3266H40.8298V60.321Z" fill="#F37441"/>
<path d="M40.8298 55.3154H35.8333V60.321H40.8298V55.3154Z" fill="#F37441"/>
<path d="M40.8298 50.3098H35.8333V55.3154H40.8298V50.3098Z" fill="#F37441"/>
<path d="M40.8298 45.3044H35.8333V50.31H40.8298V45.3044Z" fill="#F37441"/>
<path d="M40.8298 40.2986H35.8333V45.3042H40.8298V40.2986Z" fill="#F37441"/>
<path d="M40.8298 35.293H35.8333V40.2986H40.8298V35.293Z" fill="#F37441"/>
<path d="M40.8298 30.283H35.8333V35.2885H40.8298V30.283Z" fill="#F37441"/>
<path d="M40.8298 25.2773H35.8333V30.2829H40.8298V25.2773Z" fill="#F37441"/>
<path d="M40.8298 20.2717H35.8333V25.2773H40.8298V20.2717Z" fill="#F37441"/>
<path d="M40.8298 15.2708H35.8333V20.2763H40.8298V15.2708Z" fill="#F37441"/>
<path d="M40.8298 10.2605H35.8333V15.2661H40.8298V10.2605Z" fill="#F37441"/>
<path d="M35.8333 185.47H30.8323V190.475H35.8333V185.47Z" fill="#F37441"/>
<path d="M35.8333 180.464H30.8323V185.47H35.8333V180.464Z" fill="#F37441"/>
<path d="M35.8333 175.458H30.8323V180.464H35.8333V175.458Z" fill="#F37441"/>
<path d="M35.8333 170.458H30.8323V175.463H35.8333V170.458Z" fill="#F37441"/>
<path d="M35.8333 165.448H30.8323V170.453H35.8333V165.448Z" fill="#F37441"/>
<path d="M35.8333 160.442H30.8323V165.447H35.8333V160.442Z" fill="#F37441"/>
<path d="M35.8333 155.436H30.8323V160.442H35.8333V155.436Z" fill="#F37441"/>
<path d="M35.8333 150.431H30.8323V155.436H35.8333V150.431Z" fill="#F37441"/>
<path d="M35.8333 145.425H30.8323V150.431H35.8333V145.425Z" fill="#F37441"/>
<path d="M35.8333 140.415H30.8323V145.42H35.8333V140.415Z" fill="#F37441"/>
<path d="M35.8333 135.409H30.8323V140.415H35.8333V135.409Z" fill="#F37441"/>
<path d="M35.8333 130.408H30.8323V135.414H35.8333V130.408Z" fill="#F37441"/>
<path d="M35.8333 125.403H30.8323V130.408H35.8333V125.403Z" fill="#F37441"/>
<path d="M35.8333 120.393H30.8323V125.398H35.8333V120.393Z" fill="#F37441"/>
<path d="M35.8333 115.387H30.8323V120.393H35.8333V115.387Z" fill="#F37441"/>
<path d="M35.8333 110.381H30.8323V115.387H35.8333V110.381Z" fill="#F37441"/>
<path d="M35.8333 105.376H30.8323V110.381H35.8333V105.376Z" fill="#F37441"/>
<path d="M35.8333 100.37H30.8323V105.376H35.8333V100.37Z" fill="#F37441"/>
<path d="M35.8333 95.3601H30.8323V100.366H35.8333V95.3601Z" fill="#F37441"/>
<path d="M35.8333 90.3591H30.8323V95.3647H35.8333V90.3591Z" fill="#F37441"/>
<path d="M35.8333 85.3535H30.8323V90.3591H35.8333V85.3535Z" fill="#F37441"/>
<path d="M35.8333 80.3479H30.8323V85.3535H35.8333V80.3479Z" fill="#F37441"/>
<path d="M35.8333 75.3376H30.8323V80.3432H35.8333V75.3376Z" fill="#F37441"/>
<path d="M35.8333 70.3323H30.8323V75.3379H35.8333V70.3323Z" fill="#F37441"/>
<path d="M35.8333 65.3267H30.8323V70.3322H35.8333V65.3267Z" fill="#F37441"/>
<path d="M35.8333 60.321H30.8323V65.3266H35.8333V60.321Z" fill="#F37441"/>
<path d="M35.8333 55.3154H30.8323V60.321H35.8333V55.3154Z" fill="#F37441"/>
<path d="M35.8333 50.3098H30.8323V55.3154H35.8333V50.3098Z" fill="#F37441"/>
<path d="M35.8333 45.3044H30.8323V50.31H35.8333V45.3044Z" fill="#F37441"/>
<path d="M35.8333 40.2986H30.8323V45.3042H35.8333V40.2986Z" fill="#F37441"/>
<path d="M35.8333 35.293H30.8323V40.2986H35.8333V35.293Z" fill="#F37441"/>
<path d="M35.8333 30.283H30.8323V35.2885H35.8333V30.283Z" fill="#F37441"/>
<path d="M35.8333 25.2773H30.8323V30.2829H35.8333V25.2773Z" fill="#F37441"/>
<path d="M35.8333 20.2717H30.8323V25.2773H35.8333V20.2717Z" fill="#F37441"/>
<path d="M35.8333 15.2708H30.8323V20.2763H35.8333V15.2708Z" fill="#F37441"/>
<path d="M35.8333 10.2605H30.8323V15.2661H35.8333V10.2605Z" fill="#F37441"/>
<path d="M35.8333 5.25513H30.8323V10.2607H35.8333V5.25513Z" fill="#F37441"/>
<path d="M30.8367 185.47H25.8357V190.475H30.8367V185.47Z" fill="#F37441"/>
<path d="M30.8367 180.464H25.8357V185.47H30.8367V180.464Z" fill="#F37441"/>
<path d="M30.8367 175.458H25.8357V180.464H30.8367V175.458Z" fill="#F37441"/>
<path d="M30.8367 170.458H25.8357V175.463H30.8367V170.458Z" fill="#F37441"/>
<path d="M30.8367 165.448H25.8357V170.453H30.8367V165.448Z" fill="#F37441"/>
<path d="M30.8367 160.442H25.8357V165.447H30.8367V160.442Z" fill="#F37441"/>
<path d="M30.8367 155.436H25.8357V160.442H30.8367V155.436Z" fill="#F37441"/>
<path d="M30.8367 150.431H25.8357V155.436H30.8367V150.431Z" fill="#F37441"/>
<path d="M30.8367 145.425H25.8357V150.431H30.8367V145.425Z" fill="#F37441"/>
<path d="M30.8367 140.415H25.8357V145.42H30.8367V140.415Z" fill="#F37441"/>
<path d="M30.8367 135.409H25.8357V140.415H30.8367V135.409Z" fill="#F37441"/>
<path d="M30.8367 130.408H25.8357V135.414H30.8367V130.408Z" fill="#F37441"/>
<path d="M30.8367 125.403H25.8357V130.408H30.8367V125.403Z" fill="#F37441"/>
<path d="M30.8367 120.393H25.8357V125.398H30.8367V120.393Z" fill="#F37441"/>
<path d="M30.8367 115.387H25.8357V120.393H30.8367V115.387Z" fill="#F37441"/>
<path d="M30.8367 110.381H25.8357V115.387H30.8367V110.381Z" fill="#F37441"/>
<path d="M30.8367 105.376H25.8357V110.381H30.8367V105.376Z" fill="#F37441"/>
<path d="M30.8367 100.37H25.8357V105.376H30.8367V100.37Z" fill="#F37441"/>
<path d="M30.8367 95.3601H25.8357V100.366H30.8367V95.3601Z" fill="#F37441"/>
<path d="M30.8367 90.3591H25.8357V95.3647H30.8367V90.3591Z" fill="#F37441"/>
<path d="M30.8367 85.3535H25.8357V90.3591H30.8367V85.3535Z" fill="#F37441"/>
<path d="M30.8367 80.3479H25.8357V85.3535H30.8367V80.3479Z" fill="#F37441"/>
<path d="M30.8367 75.3376H25.8357V80.3432H30.8367V75.3376Z" fill="#F37441"/>
<path d="M30.8367 70.3323H25.8357V75.3379H30.8367V70.3323Z" fill="#F37441"/>
<path d="M30.8367 65.3267H25.8357V70.3322H30.8367V65.3267Z" fill="#F37441"/>
<path d="M30.8367 60.321H25.8357V65.3266H30.8367V60.321Z" fill="#F37441"/>
<path d="M30.8367 55.3154H25.8357V60.321H30.8367V55.3154Z" fill="#F37441"/>
<path d="M30.8367 50.3098H25.8357V55.3154H30.8367V50.3098Z" fill="#F37441"/>
<path d="M30.8367 45.3044H25.8357V50.31H30.8367V45.3044Z" fill="#F37441"/>
<path d="M30.8367 40.2986H25.8357V45.3042H30.8367V40.2986Z" fill="#F37441"/>
<path d="M30.8367 35.293H25.8357V40.2986H30.8367V35.293Z" fill="#F37441"/>
<path d="M30.8367 30.283H25.8357V35.2885H30.8367V30.283Z" fill="#F37441"/>
<path d="M30.8367 25.2773H25.8357V30.2829H30.8367V25.2773Z" fill="#F37441"/>
<path d="M30.8367 20.2717H25.8357V25.2773H30.8367V20.2717Z" fill="#F37441"/>
<path d="M30.8367 15.2708H25.8357V20.2763H30.8367V15.2708Z" fill="#F37441"/>
<path d="M30.8367 10.2605H25.8357V15.2661H30.8367V10.2605Z" fill="#F37441"/>
<path d="M30.8367 5.25513H25.8357V10.2607H30.8367V5.25513Z" fill="#F37441"/>
<path d="M30.8367 0.249512H25.8357V5.2551H30.8367V0.249512Z" fill="#F37441"/>
<path d="M25.8358 160.442H20.8347V165.447H25.8358V160.442Z" fill="black"/>
<path d="M25.8358 155.436H20.8347V160.442H25.8358V155.436Z" fill="black"/>
<path d="M25.8358 150.431H20.8347V155.436H25.8358V150.431Z" fill="black"/>
<path d="M25.8358 90.3591H20.8347V95.3647H25.8358V90.3591Z" fill="black"/>
<path d="M25.8358 85.3535H20.8347V90.3591H25.8358V85.3535Z" fill="black"/>
<path d="M20.8349 175.458H15.8384V180.464H20.8349V175.458Z" fill="black"/>
<path d="M20.8349 165.448H15.8384V170.453H20.8349V165.448Z" fill="black"/>
<path d="M20.8349 160.442H15.8384V165.447H20.8349V160.442Z" fill="black"/>
<path d="M20.8349 155.436H15.8384V160.442H20.8349V155.436Z" fill="black"/>
<path d="M20.8349 150.431H15.8384V155.436H20.8349V150.431Z" fill="black"/>
<path d="M20.8349 95.3601H15.8384V100.366H20.8349V95.3601Z" fill="black"/>
<path d="M20.8349 90.3591H15.8384V95.3647H20.8349V90.3591Z" fill="black"/>
<path d="M15.8382 175.458H10.8372V180.464H15.8382V175.458Z" fill="black"/>
<path d="M15.8382 170.458H10.8372V175.463H15.8382V170.458Z" fill="black"/>
<path d="M15.8382 165.448H10.8372V170.453H15.8382V165.448Z" fill="black"/>
<path d="M15.8382 160.442H10.8372V165.447H15.8382V160.442Z" fill="black"/>
<path d="M15.8382 155.436H10.8372V160.442H15.8382V155.436Z" fill="black"/>
<path d="M15.8382 100.37H10.8372V105.376H15.8382V100.37Z" fill="black"/>
<path d="M15.8382 95.3601H10.8372V100.366H15.8382V95.3601Z" fill="black"/>
<path d="M10.8372 170.458H5.83618V175.463H10.8372V170.458Z" fill="black"/>
<path d="M10.8372 165.448H5.83618V170.453H10.8372V165.448Z" fill="black"/>
<path d="M10.8372 160.442H5.83618V165.447H10.8372V160.442Z" fill="black"/>
<path d="M10.8372 155.436H5.83618V160.442H10.8372V155.436Z" fill="black"/>
<path d="M10.8372 105.376H5.83618V110.381H10.8372V105.376Z" fill="black"/>
<path d="M5.83626 165.448H0.835205V170.453H5.83626V165.448Z" fill="black"/>
<path d="M5.83626 160.442H0.835205V165.447H5.83626V160.442Z" fill="black"/>
</g>
<defs>
<clipPath id="clip0_924_1684">
<rect width="109.991" height="215.258" fill="white" transform="translate(0.835205 0.249512)"/>
</clipPath>
</defs>
</svg>
