<svg width="96" height="120" viewBox="0 0 231 215" fill="none" xmlns="http://www.w3.org/2000/svg">
<path d="M79.5701 84.6599H74.6001V89.6399H79.5701V84.6599Z" fill="#F27541"/>
<path d="M54.7 59.7598H49.73V64.7398H54.7V59.7598Z" fill="#F27541"/>
<path d="M109.41 94.6101H104.44V99.5901H109.41V94.6101Z" fill="#010101"/>
<path d="M104.44 99.5901H99.4702V104.57H104.44V99.5901Z" fill="#010101"/>
<path d="M104.44 94.6101H99.4702V99.5901H104.44V94.6101Z" fill="#010101"/>
<path d="M99.47 99.5901H94.5V104.57H99.47V99.5901Z" fill="#010101"/>
<path d="M99.47 94.6101H94.5V99.5901H99.47V94.6101Z" fill="#010101"/>
<path d="M94.49 174.29H89.52V179.27H94.49V174.29Z" fill="#010101"/>
<path d="M94.49 99.5901H89.52V104.57H94.49V99.5901Z" fill="#010101"/>
<path d="M94.49 94.6101H89.52V99.5901H94.49V94.6101Z" fill="#010101"/>
<path d="M89.5198 174.29H84.5498V179.27H89.5198V174.29Z" fill="#010101"/>
<path d="M89.5198 169.31H84.5498V174.29H89.5198V169.31Z" fill="#010101"/>
<path d="M89.5198 99.5901H84.5498V104.57H89.5198V99.5901Z" fill="#010101"/>
<path d="M89.5198 94.6101H84.5498V99.5901H89.5198V94.6101Z" fill="#010101"/>
<path d="M84.5398 174.29H79.5698V179.27H84.5398V174.29Z" fill="#010101"/>
<path d="M84.5398 169.31H79.5698V174.29H84.5398V169.31Z" fill="#010101"/>
<path d="M84.5398 164.33H79.5698V169.31H84.5398V164.33Z" fill="#010101"/>
<path d="M84.5398 159.35H79.5698V164.33H84.5398V159.35Z" fill="#010101"/>
<path d="M84.5398 154.37H79.5698V159.35H84.5398V154.37Z" fill="#010101"/>
<path d="M84.5398 149.39H79.5698V154.37H84.5398V149.39Z" fill="#010101"/>
<path d="M84.5398 144.41H79.5698V149.39H84.5398V144.41Z" fill="#010101"/>
<path d="M84.5398 139.43H79.5698V144.41H84.5398V139.43Z" fill="#010101"/>
<path d="M84.5398 99.5901H79.5698V104.57H84.5398V99.5901Z" fill="#010101"/>
<path d="M84.5398 94.6101H79.5698V99.5901H84.5398V94.6101Z" fill="#010101"/>
<path d="M79.5701 174.29H74.6001V179.27H79.5701V174.29Z" fill="#010101"/>
<path d="M79.5701 169.31H74.6001V174.29H79.5701V169.31Z" fill="#010101"/>
<path d="M79.5701 164.33H74.6001V169.31H79.5701V164.33Z" fill="#010101"/>
<path d="M79.5701 159.35H74.6001V164.33H79.5701V159.35Z" fill="#010101"/>
<path d="M79.5701 154.37H74.6001V159.35H79.5701V154.37Z" fill="#010101"/>
<path d="M79.5701 149.39H74.6001V154.37H79.5701V149.39Z" fill="#010101"/>
<path d="M79.5701 144.41H74.6001V149.39H79.5701V144.41Z" fill="#010101"/>
<path d="M79.5701 139.43H74.6001V144.41H79.5701V139.43Z" fill="#010101"/>
<path d="M79.5701 134.45H74.6001V139.43H79.5701V134.45Z" fill="#010101"/>
<path d="M79.5701 129.47H74.6001V134.45H79.5701V129.47Z" fill="#010101"/>
<path d="M79.5701 124.49H74.6001V129.47H79.5701V124.49Z" fill="#F27541"/>
<path d="M79.5701 119.51H74.6001V124.49H79.5701V119.51Z" fill="#F27541"/>
<path d="M79.5701 114.53H74.6001V119.51H79.5701V114.53Z" fill="#F27541"/>
<path d="M79.5701 109.55H74.6001V114.53H79.5701V109.55Z" fill="#F27541"/>
<path d="M79.5701 104.57H74.6001V109.55H79.5701V104.57Z" fill="#F27541"/>
<path d="M79.5701 99.5901H74.6001V104.57H79.5701V99.5901Z" fill="#010101"/>
<path d="M79.5701 94.6101H74.6001V99.5901H79.5701V94.6101Z" fill="#010101"/>
<path d="M79.5701 89.6399H74.6001V94.6199H79.5701V89.6399Z" fill="#010101"/>
<path d="M79.5701 79.6799H74.6001V84.6599H79.5701V79.6799Z" fill="#F27541"/>
<path d="M79.5701 74.7H74.6001V79.68H79.5701V74.7Z" fill="#F27541"/>
<path d="M79.5701 69.72H74.6001V74.7H79.5701V69.72Z" fill="#F27541"/>
<path d="M79.5701 64.74H74.6001V69.72H79.5701V64.74Z" fill="#F27541"/>
<path d="M79.5701 59.7598H74.6001V64.7398H79.5701V59.7598Z" fill="#F27541"/>
<path d="M79.5701 54.7798H74.6001V59.7598H79.5701V54.7798Z" fill="#F27541"/>
<path d="M79.5701 49.7998H74.6001V54.7798H79.5701V49.7998Z" fill="#F27541"/>
<path d="M74.5999 169.31H69.6299V174.29H74.5999V169.31Z" fill="#010101"/>
<path d="M74.5999 164.33H69.6299V169.31H74.5999V164.33Z" fill="#010101"/>
<path d="M74.5999 159.35H69.6299V164.33H74.5999V159.35Z" fill="#010101"/>
<path d="M74.5999 154.37H69.6299V159.35H74.5999V154.37Z" fill="#010101"/>
<path d="M74.5999 149.39H69.6299V154.37H74.5999V149.39Z" fill="#010101"/>
<path d="M74.5999 144.41H69.6299V149.39H74.5999V144.41Z" fill="#010101"/>
<path d="M74.5999 139.43H69.6299V144.41H74.5999V139.43Z" fill="#010101"/>
<path d="M74.5999 134.45H69.6299V139.43H74.5999V134.45Z" fill="#010101"/>
<path d="M74.5999 129.47H69.6299V134.45H74.5999V129.47Z" fill="#010101"/>
<path d="M74.5999 124.49H69.6299V129.47H74.5999V124.49Z" fill="#010101"/>
<path d="M74.5999 119.51H69.6299V124.49H74.5999V119.51Z" fill="#F27541"/>
<path d="M74.5999 114.53H69.6299V119.51H74.5999V114.53Z" fill="#F27541"/>
<path d="M74.5999 109.55H69.6299V114.53H74.5999V109.55Z" fill="#F27541"/>
<path d="M74.5999 104.57H69.6299V109.55H74.5999V104.57Z" fill="#F27541"/>
<path d="M74.5999 99.5901H69.6299V104.57H74.5999V99.5901Z" fill="#010101"/>
<path d="M74.5999 94.6101H69.6299V99.5901H74.5999V94.6101Z" fill="#010101"/>
<path d="M74.5999 89.6399H69.6299V94.6199H74.5999V89.6399Z" fill="#010101"/>
<path d="M74.5999 84.6599H69.6299V89.6399H74.5999V84.6599Z" fill="#010101"/>
<path d="M74.5999 79.6799H69.6299V84.6599H74.5999V79.6799Z" fill="#010101"/>
<path d="M74.5999 74.7H69.6299V79.68H74.5999V74.7Z" fill="#F27541"/>
<path d="M74.5999 69.72H69.6299V74.7H74.5999V69.72Z" fill="#F27541"/>
<path d="M74.5999 64.74H69.6299V69.72H74.5999V64.74Z" fill="#F27541"/>
<path d="M74.5999 59.7598H69.6299V64.7398H74.5999V59.7598Z" fill="#010101"/>
<path d="M74.5999 54.7798H69.6299V59.7598H74.5999V54.7798Z" fill="#010101"/>
<path d="M74.5999 49.7998H69.6299V54.7798H74.5999V49.7998Z" fill="#010101"/>
<path d="M74.5999 44.8198H69.6299V49.7998H74.5999V44.8198Z" fill="#F27541"/>
<path d="M69.6199 169.31H64.6499V174.29H69.6199V169.31Z" fill="#F27541"/>
<path d="M69.6199 164.33H64.6499V169.31H69.6199V164.33Z" fill="#010101"/>
<path d="M69.6199 159.35H64.6499V164.33H69.6199V159.35Z" fill="#F27541"/>
<path d="M69.6199 154.37H64.6499V159.35H69.6199V154.37Z" fill="#F27541"/>
<path d="M69.6199 149.39H64.6499V154.37H69.6199V149.39Z" fill="#F27541"/>
<path d="M69.6199 144.41H64.6499V149.39H69.6199V144.41Z" fill="#010101"/>
<path d="M69.6199 139.43H64.6499V144.41H69.6199V139.43Z" fill="#010101"/>
<path d="M69.6199 134.45H64.6499V139.43H69.6199V134.45Z" fill="#010101"/>
<path d="M69.6199 129.47H64.6499V134.45H69.6199V129.47Z" fill="#010101"/>
<path d="M69.6199 124.49H64.6499V129.47H69.6199V124.49Z" fill="#010101"/>
<path d="M69.6199 119.51H64.6499V124.49H69.6199V119.51Z" fill="#010101"/>
<path d="M69.6199 114.53H64.6499V119.51H69.6199V114.53Z" fill="#F27541"/>
<path d="M69.6199 109.55H64.6499V114.53H69.6199V109.55Z" fill="#F27541"/>
<path d="M69.6199 104.57H64.6499V109.55H69.6199V104.57Z" fill="#F27541"/>
<path d="M69.6199 99.5901H64.6499V104.57H69.6199V99.5901Z" fill="#F27541"/>
<path d="M69.6199 94.6101H64.6499V99.5901H69.6199V94.6101Z" fill="#010101"/>
<path d="M69.6199 89.6399H64.6499V94.6199H69.6199V89.6399Z" fill="#010101"/>
<path d="M69.6199 84.6599H64.6499V89.6399H69.6199V84.6599Z" fill="#010101"/>
<path d="M69.6199 79.6799H64.6499V84.6599H69.6199V79.6799Z" fill="#010101"/>
<path d="M69.6199 74.7H64.6499V79.68H69.6199V74.7Z" fill="#010101"/>
<path d="M69.6199 69.72H64.6499V74.7H69.6199V69.72Z" fill="#F27541"/>
<path d="M69.6199 64.74H64.6499V69.72H69.6199V64.74Z" fill="#010101"/>
<path d="M69.6199 59.7598H64.6499V64.7398H69.6199V59.7598Z" fill="#010101"/>
<path d="M69.6199 54.7798H64.6499V59.7598H69.6199V54.7798Z" fill="#010101"/>
<path d="M69.6199 49.7998H64.6499V54.7798H69.6199V49.7998Z" fill="#010101"/>
<path d="M69.6199 44.8198H64.6499V49.7998H69.6199V44.8198Z" fill="#010101"/>
<path d="M69.6199 39.8398H64.6499V44.8198H69.6199V39.8398Z" fill="#F27541"/>
<path d="M64.6502 174.29H59.6802V179.27H64.6502V174.29Z" fill="#F27541"/>
<path d="M64.6502 169.31H59.6802V174.29H64.6502V169.31Z" fill="#F27541"/>
<path d="M64.6502 164.33H59.6802V169.31H64.6502V164.33Z" fill="#F27541"/>
<path d="M64.6502 159.35H59.6802V164.33H64.6502V159.35Z" fill="#F27541"/>
<path d="M64.6502 154.37H59.6802V159.35H64.6502V154.37Z" fill="#F27541"/>
<path d="M64.6502 149.39H59.6802V154.37H64.6502V149.39Z" fill="#F27541"/>
<path d="M64.6502 144.41H59.6802V149.39H64.6502V144.41Z" fill="#F27541"/>
<path d="M64.6502 139.43H59.6802V144.41H64.6502V139.43Z" fill="#F27541"/>
<path d="M64.6502 134.45H59.6802V139.43H64.6502V134.45Z" fill="#010101"/>
<path d="M64.6502 129.47H59.6802V134.45H64.6502V129.47Z" fill="#010101"/>
<path d="M64.6502 124.49H59.6802V129.47H64.6502V124.49Z" fill="#010101"/>
<path d="M64.6502 119.51H59.6802V124.49H64.6502V119.51Z" fill="#010101"/>
<path d="M64.6502 114.53H59.6802V119.51H64.6502V114.53Z" fill="#010101"/>
<path d="M64.6502 109.55H59.6802V114.53H64.6502V109.55Z" fill="#F27541"/>
<path d="M64.6502 104.57H59.6802V109.55H64.6502V104.57Z" fill="#F27541"/>
<path d="M64.6502 99.5901H59.6802V104.57H64.6502V99.5901Z" fill="#010101"/>
<path d="M64.6502 94.6101H59.6802V99.5901H64.6502V94.6101Z" fill="#010101"/>
<path d="M64.6502 89.6399H59.6802V94.6199H64.6502V89.6399Z" fill="#010101"/>
<path d="M64.6502 84.6599H59.6802V89.6399H64.6502V84.6599Z" fill="#010101"/>
<path d="M64.6502 79.6799H59.6802V84.6599H64.6502V79.6799Z" fill="#010101"/>
<path d="M64.6502 74.7H59.6802V79.68H64.6502V74.7Z" fill="#010101"/>
<path d="M64.6502 69.72H59.6802V74.7H64.6502V69.72Z" fill="#010101"/>
<path d="M64.6502 64.74H59.6802V69.72H64.6502V64.74Z" fill="#010101"/>
<path d="M64.6502 59.7598H59.6802V64.7398H64.6502V59.7598Z" fill="#010101"/>
<path d="M64.6502 54.7798H59.6802V59.7598H64.6502V54.7798Z" fill="#010101"/>
<path d="M64.6502 49.7998H59.6802V54.7798H64.6502V49.7998Z" fill="#010101"/>
<path d="M64.6502 44.8198H59.6802V49.7998H64.6502V44.8198Z" fill="#010101"/>
<path d="M64.6502 39.8398H59.6802V44.8198H64.6502V39.8398Z" fill="#F27541"/>
<path d="M64.6502 34.8599H59.6802V39.8399H64.6502V34.8599Z" fill="#F27541"/>
<path d="M59.68 179.27H54.71V184.25H59.68V179.27Z" fill="#F27541"/>
<path d="M59.68 174.29H54.71V179.27H59.68V174.29Z" fill="#F27541"/>
<path d="M59.68 169.31H54.71V174.29H59.68V169.31Z" fill="#F27541"/>
<path d="M59.68 164.33H54.71V169.31H59.68V164.33Z" fill="#F27541"/>
<path d="M59.68 159.35H54.71V164.33H59.68V159.35Z" fill="#F27541"/>
<path d="M59.68 154.37H54.71V159.35H59.68V154.37Z" fill="#F27541"/>
<path d="M59.68 149.39H54.71V154.37H59.68V149.39Z" fill="#F27541"/>
<path d="M59.68 144.41H54.71V149.39H59.68V144.41Z" fill="#F27541"/>
<path d="M59.68 139.43H54.71V144.41H59.68V139.43Z" fill="#F27541"/>
<path d="M59.68 134.45H54.71V139.43H59.68V134.45Z" fill="#F27541"/>
<path d="M59.68 129.47H54.71V134.45H59.68V129.47Z" fill="#010101"/>
<path d="M59.68 124.49H54.71V129.47H59.68V124.49Z" fill="#010101"/>
<path d="M59.68 119.51H54.71V124.49H59.68V119.51Z" fill="#010101"/>
<path d="M59.68 114.53H54.71V119.51H59.68V114.53Z" fill="#010101"/>
<path d="M59.68 109.55H54.71V114.53H59.68V109.55Z" fill="#010101"/>
<path d="M59.68 104.57H54.71V109.55H59.68V104.57Z" fill="#010101"/>
<path d="M59.68 99.5901H54.71V104.57H59.68V99.5901Z" fill="#010101"/>
<path d="M59.68 94.6101H54.71V99.5901H59.68V94.6101Z" fill="#010101"/>
<path d="M59.68 89.6399H54.71V94.6199H59.68V89.6399Z" fill="#010101"/>
<path d="M59.68 84.6599H54.71V89.6399H59.68V84.6599Z" fill="#010101"/>
<path d="M59.68 79.6799H54.71V84.6599H59.68V79.6799Z" fill="#010101"/>
<path d="M59.68 74.7H54.71V79.68H59.68V74.7Z" fill="#010101"/>
<path d="M59.68 69.72H54.71V74.7H59.68V69.72Z" fill="#010101"/>
<path d="M59.68 64.74H54.71V69.72H59.68V64.74Z" fill="#010101"/>
<path d="M59.68 59.7598H54.71V64.7398H59.68V59.7598Z" fill="#010101"/>
<path d="M59.68 54.7798H54.71V59.7598H59.68V54.7798Z" fill="#010101"/>
<path d="M59.68 49.7998H54.71V54.7798H59.68V49.7998Z" fill="#010101"/>
<path d="M59.68 44.8198H54.71V49.7998H59.68V44.8198Z" fill="#010101"/>
<path d="M59.68 39.8398H54.71V44.8198H59.68V39.8398Z" fill="#F27541"/>
<path d="M59.68 34.8599H54.71V39.8399H59.68V34.8599Z" fill="#F27541"/>
<path d="M59.68 29.8799H54.71V34.8599H59.68V29.8799Z" fill="#F27541"/>
<path d="M54.7 184.25H49.73V189.23H54.7V184.25Z" fill="#F27541"/>
<path d="M54.7 179.27H49.73V184.25H54.7V179.27Z" fill="#F27541"/>
<path d="M54.7 174.29H49.73V179.27H54.7V174.29Z" fill="#F27541"/>
<path d="M54.7 169.31H49.73V174.29H54.7V169.31Z" fill="#F27541"/>
<path d="M54.7 164.33H49.73V169.31H54.7V164.33Z" fill="#F27541"/>
<path d="M54.7 159.35H49.73V164.33H54.7V159.35Z" fill="#F27541"/>
<path d="M54.7 154.37H49.73V159.35H54.7V154.37Z" fill="#F27541"/>
<path d="M54.7 149.39H49.73V154.37H54.7V149.39Z" fill="#F27541"/>
<path d="M54.7 144.41H49.73V149.39H54.7V144.41Z" fill="#F27541"/>
<path d="M54.7 139.43H49.73V144.41H54.7V139.43Z" fill="#F27541"/>
<path d="M54.7 134.45H49.73V139.43H54.7V134.45Z" fill="#F27541"/>
<path d="M54.7 129.47H49.73V134.45H54.7V129.47Z" fill="#010101"/>
<path d="M54.7 124.49H49.73V129.47H54.7V124.49Z" fill="#010101"/>
<path d="M54.7 119.51H49.73V124.49H54.7V119.51Z" fill="#010101"/>
<path d="M54.7 114.53H49.73V119.51H54.7V114.53Z" fill="#010101"/>
<path d="M54.7 109.55H49.73V114.53H54.7V109.55Z" fill="#010101"/>
<path d="M54.7 104.57H49.73V109.55H54.7V104.57Z" fill="#010101"/>
<path d="M54.7 99.5901H49.73V104.57H54.7V99.5901Z" fill="#010101"/>
<path d="M54.7 94.6101H49.73V99.5901H54.7V94.6101Z" fill="#010101"/>
<path d="M54.7 89.6399H49.73V94.6199H54.7V89.6399Z" fill="#010101"/>
<path d="M54.7 84.6599H49.73V89.6399H54.7V84.6599Z" fill="#010101"/>
<path d="M54.7 79.6799H49.73V84.6599H54.7V79.6799Z" fill="#010101"/>
<path d="M54.7 74.7H49.73V79.68H54.7V74.7Z" fill="#010101"/>
<path d="M54.7 69.72H49.73V74.7H54.7V69.72Z" fill="#010101"/>
<path d="M54.7 64.74H49.73V69.72H54.7V64.74Z" fill="#010101"/>
<path d="M54.7 54.7798H49.73V59.7598H54.7V54.7798Z" fill="#010101"/>
<path d="M54.7 49.7998H49.73V54.7798H54.7V49.7998Z" fill="#010101"/>
<path d="M54.7 44.8198H49.73V49.7998H54.7V44.8198Z" fill="#F27541"/>
<path d="M54.7 39.8398H49.73V44.8198H54.7V39.8398Z" fill="#F27541"/>
<path d="M54.7 34.8599H49.73V39.8399H54.7V34.8599Z" fill="#F27541"/>
<path d="M54.7 29.8799H49.73V34.8599H54.7V29.8799Z" fill="#F27541"/>
<path d="M54.7 24.8999H49.73V29.8799H54.7V24.8999Z" fill="#F27541"/>
<path d="M49.7298 189.23H44.7598V194.21H49.7298V189.23Z" fill="#F27541"/>
<path d="M49.7298 184.25H44.7598V189.23H49.7298V184.25Z" fill="#F27541"/>
<path d="M49.7298 179.27H44.7598V184.25H49.7298V179.27Z" fill="#F27541"/>
<path d="M49.7298 174.29H44.7598V179.27H49.7298V174.29Z" fill="#F27541"/>
<path d="M49.7298 169.31H44.7598V174.29H49.7298V169.31Z" fill="#F27541"/>
<path d="M49.7298 164.33H44.7598V169.31H49.7298V164.33Z" fill="#F27541"/>
<path d="M49.7298 159.35H44.7598V164.33H49.7298V159.35Z" fill="#F27541"/>
<path d="M49.7298 154.37H44.7598V159.35H49.7298V154.37Z" fill="#F27541"/>
<path d="M49.7298 149.39H44.7598V154.37H49.7298V149.39Z" fill="#F27541"/>
<path d="M49.7298 144.41H44.7598V149.39H49.7298V144.41Z" fill="#F27541"/>
<path d="M49.7298 139.43H44.7598V144.41H49.7298V139.43Z" fill="#F27541"/>
<path d="M49.7298 134.45H44.7598V139.43H49.7298V134.45Z" fill="#F27541"/>
<path d="M49.7298 129.47H44.7598V134.45H49.7298V129.47Z" fill="#F27541"/>
<path d="M49.7298 124.49H44.7598V129.47H49.7298V124.49Z" fill="#F27541"/>
<path d="M49.7298 119.51H44.7598V124.49H49.7298V119.51Z" fill="#F27541"/>
<path d="M49.7298 114.53H44.7598V119.51H49.7298V114.53Z" fill="#F27541"/>
<path d="M49.7298 109.55H44.7598V114.53H49.7298V109.55Z" fill="#F27541"/>
<path d="M49.7298 104.57H44.7598V109.55H49.7298V104.57Z" fill="#F27541"/>
<path d="M49.7298 99.5901H44.7598V104.57H49.7298V99.5901Z" fill="#F27541"/>
<path d="M49.7298 94.6101H44.7598V99.5901H49.7298V94.6101Z" fill="#F27541"/>
<path d="M49.7298 89.6399H44.7598V94.6199H49.7298V89.6399Z" fill="#F27541"/>
<path d="M49.7298 84.6599H44.7598V89.6399H49.7298V84.6599Z" fill="#F27541"/>
<path d="M49.7298 79.6799H44.7598V84.6599H49.7298V79.6799Z" fill="#F27541"/>
<path d="M49.7298 74.7H44.7598V79.68H49.7298V74.7Z" fill="#F27541"/>
<path d="M49.7298 69.72H44.7598V74.7H49.7298V69.72Z" fill="#F27541"/>
<path d="M49.7298 64.74H44.7598V69.72H49.7298V64.74Z" fill="#F27541"/>
<path d="M49.7298 59.7598H44.7598V64.7398H49.7298V59.7598Z" fill="#F27541"/>
<path d="M49.7298 54.7798H44.7598V59.7598H49.7298V54.7798Z" fill="#F27541"/>
<path d="M49.7298 49.7998H44.7598V54.7798H49.7298V49.7998Z" fill="#F27541"/>
<path d="M49.7298 44.8198H44.7598V49.7998H49.7298V44.8198Z" fill="#F27541"/>
<path d="M49.7298 39.8398H44.7598V44.8198H49.7298V39.8398Z" fill="#F27541"/>
<path d="M49.7298 34.8599H44.7598V39.8399H49.7298V34.8599Z" fill="#F27541"/>
<path d="M49.7298 29.8799H44.7598V34.8599H49.7298V29.8799Z" fill="#F27541"/>
<path d="M49.7298 24.8999H44.7598V29.8799H49.7298V24.8999Z" fill="#F27541"/>
<path d="M49.7298 19.9199H44.7598V24.8999H49.7298V19.9199Z" fill="#F27541"/>
<path d="M44.76 194.21H39.79V199.19H44.76V194.21Z" fill="#F27541"/>
<path d="M44.76 189.23H39.79V194.21H44.76V189.23Z" fill="#F27541"/>
<path d="M44.76 184.25H39.79V189.23H44.76V184.25Z" fill="#F27541"/>
<path d="M44.76 179.27H39.79V184.25H44.76V179.27Z" fill="#F27541"/>
<path d="M44.76 174.29H39.79V179.27H44.76V174.29Z" fill="#F27541"/>
<path d="M44.76 169.31H39.79V174.29H44.76V169.31Z" fill="#F27541"/>
<path d="M44.76 164.33H39.79V169.31H44.76V164.33Z" fill="#F27541"/>
<path d="M44.76 159.35H39.79V164.33H44.76V159.35Z" fill="#F27541"/>
<path d="M44.76 154.37H39.79V159.35H44.76V154.37Z" fill="#F27541"/>
<path d="M44.76 149.39H39.79V154.37H44.76V149.39Z" fill="#F27541"/>
<path d="M44.76 144.41H39.79V149.39H44.76V144.41Z" fill="#F27541"/>
<path d="M44.76 139.43H39.79V144.41H44.76V139.43Z" fill="#F27541"/>
<path d="M44.76 134.45H39.79V139.43H44.76V134.45Z" fill="#F27541"/>
<path d="M44.76 129.47H39.79V134.45H44.76V129.47Z" fill="#F27541"/>
<path d="M44.76 124.49H39.79V129.47H44.76V124.49Z" fill="#F27541"/>
<path d="M44.76 119.51H39.79V124.49H44.76V119.51Z" fill="#F27541"/>
<path d="M44.76 114.53H39.79V119.51H44.76V114.53Z" fill="#F27541"/>
<path d="M44.76 109.55H39.79V114.53H44.76V109.55Z" fill="#F27541"/>
<path d="M44.76 104.57H39.79V109.55H44.76V104.57Z" fill="#F27541"/>
<path d="M44.76 99.5901H39.79V104.57H44.76V99.5901Z" fill="#F27541"/>
<path d="M44.76 94.6101H39.79V99.5901H44.76V94.6101Z" fill="#F27541"/>
<path d="M44.76 89.6399H39.79V94.6199H44.76V89.6399Z" fill="#F27541"/>
<path d="M44.76 84.6599H39.79V89.6399H44.76V84.6599Z" fill="#F27541"/>
<path d="M44.76 79.6799H39.79V84.6599H44.76V79.6799Z" fill="#F27541"/>
<path d="M44.76 74.7H39.79V79.68H44.76V74.7Z" fill="#F27541"/>
<path d="M44.76 69.72H39.79V74.7H44.76V69.72Z" fill="#F27541"/>
<path d="M44.76 64.74H39.79V69.72H44.76V64.74Z" fill="#F27541"/>
<path d="M44.76 59.7598H39.79V64.7398H44.76V59.7598Z" fill="#F27541"/>
<path d="M44.76 54.7798H39.79V59.7598H44.76V54.7798Z" fill="#F27541"/>
<path d="M44.76 49.7998H39.79V54.7798H44.76V49.7998Z" fill="#F27541"/>
<path d="M44.76 44.8198H39.79V49.7998H44.76V44.8198Z" fill="#F27541"/>
<path d="M44.76 39.8398H39.79V44.8198H44.76V39.8398Z" fill="#F27541"/>
<path d="M44.76 34.8599H39.79V39.8399H44.76V34.8599Z" fill="#F27541"/>
<path d="M44.76 29.8799H39.79V34.8599H44.76V29.8799Z" fill="#F27541"/>
<path d="M44.76 24.8999H39.79V29.8799H44.76V24.8999Z" fill="#F27541"/>
<path d="M44.76 19.9199H39.79V24.8999H44.76V19.9199Z" fill="#F27541"/>
<path d="M44.76 14.9399H39.79V19.9199H44.76V14.9399Z" fill="#F27541"/>
<path d="M39.7898 199.19H34.8198V204.17H39.7898V199.19Z" fill="#F27541"/>
<path d="M39.7898 194.21H34.8198V199.19H39.7898V194.21Z" fill="#F27541"/>
<path d="M39.7898 189.23H34.8198V194.21H39.7898V189.23Z" fill="#F27541"/>
<path d="M39.7898 184.25H34.8198V189.23H39.7898V184.25Z" fill="#F27541"/>
<path d="M39.7898 179.27H34.8198V184.25H39.7898V179.27Z" fill="#F27541"/>
<path d="M39.7898 174.29H34.8198V179.27H39.7898V174.29Z" fill="#F27541"/>
<path d="M39.7898 169.31H34.8198V174.29H39.7898V169.31Z" fill="#F27541"/>
<path d="M39.7898 164.33H34.8198V169.31H39.7898V164.33Z" fill="#F27541"/>
<path d="M39.7898 159.35H34.8198V164.33H39.7898V159.35Z" fill="#F27541"/>
<path d="M39.7898 154.37H34.8198V159.35H39.7898V154.37Z" fill="#F27541"/>
<path d="M39.7898 149.39H34.8198V154.37H39.7898V149.39Z" fill="#F27541"/>
<path d="M39.7898 144.41H34.8198V149.39H39.7898V144.41Z" fill="#F27541"/>
<path d="M39.7898 139.43H34.8198V144.41H39.7898V139.43Z" fill="#F27541"/>
<path d="M39.7898 134.45H34.8198V139.43H39.7898V134.45Z" fill="#F27541"/>
<path d="M39.7898 129.47H34.8198V134.45H39.7898V129.47Z" fill="#F27541"/>
<path d="M39.7898 124.49H34.8198V129.47H39.7898V124.49Z" fill="#F27541"/>
<path d="M39.7898 119.51H34.8198V124.49H39.7898V119.51Z" fill="#F27541"/>
<path d="M39.7898 114.53H34.8198V119.51H39.7898V114.53Z" fill="#F27541"/>
<path d="M39.7898 109.55H34.8198V114.53H39.7898V109.55Z" fill="#F27541"/>
<path d="M39.7898 104.57H34.8198V109.55H39.7898V104.57Z" fill="#F27541"/>
<path d="M39.7898 99.5901H34.8198V104.57H39.7898V99.5901Z" fill="#F27541"/>
<path d="M39.7898 94.6101H34.8198V99.5901H39.7898V94.6101Z" fill="#F27541"/>
<path d="M39.7898 89.6399H34.8198V94.6199H39.7898V89.6399Z" fill="#F27541"/>
<path d="M39.7898 84.6599H34.8198V89.6399H39.7898V84.6599Z" fill="#F27541"/>
<path d="M39.7898 79.6799H34.8198V84.6599H39.7898V79.6799Z" fill="#F27541"/>
<path d="M39.7898 74.7H34.8198V79.68H39.7898V74.7Z" fill="#F27541"/>
<path d="M39.7898 69.72H34.8198V74.7H39.7898V69.72Z" fill="#F27541"/>
<path d="M39.7898 64.74H34.8198V69.72H39.7898V64.74Z" fill="#F27541"/>
<path d="M39.7898 59.7598H34.8198V64.7398H39.7898V59.7598Z" fill="#F27541"/>
<path d="M39.7898 54.7798H34.8198V59.7598H39.7898V54.7798Z" fill="#F27541"/>
<path d="M39.7898 49.7998H34.8198V54.7798H39.7898V49.7998Z" fill="#F27541"/>
<path d="M39.7898 44.8198H34.8198V49.7998H39.7898V44.8198Z" fill="#F27541"/>
<path d="M39.7898 39.8398H34.8198V44.8198H39.7898V39.8398Z" fill="#F27541"/>
<path d="M39.7898 34.8599H34.8198V39.8399H39.7898V34.8599Z" fill="#F27541"/>
<path d="M39.7898 29.8799H34.8198V34.8599H39.7898V29.8799Z" fill="#F27541"/>
<path d="M39.7898 24.8999H34.8198V29.8799H39.7898V24.8999Z" fill="#F27541"/>
<path d="M39.7898 19.9199H34.8198V24.8999H39.7898V19.9199Z" fill="#F27541"/>
<path d="M39.7898 14.9399H34.8198V19.9199H39.7898V14.9399Z" fill="#F27541"/>
<path d="M39.7898 9.95996H34.8198V14.94H39.7898V9.95996Z" fill="#F27541"/>
<path d="M34.8098 204.17H29.8398V209.15H34.8098V204.17Z" fill="#F27541"/>
<path d="M34.8098 199.19H29.8398V204.17H34.8098V199.19Z" fill="#F27541"/>
<path d="M34.8098 194.21H29.8398V199.19H34.8098V194.21Z" fill="#F27541"/>
<path d="M34.8098 189.23H29.8398V194.21H34.8098V189.23Z" fill="#F27541"/>
<path d="M34.8098 184.25H29.8398V189.23H34.8098V184.25Z" fill="#F27541"/>
<path d="M34.8098 179.27H29.8398V184.25H34.8098V179.27Z" fill="#F27541"/>
<path d="M34.8098 174.29H29.8398V179.27H34.8098V174.29Z" fill="#F27541"/>
<path d="M34.8098 169.31H29.8398V174.29H34.8098V169.31Z" fill="#F27541"/>
<path d="M34.8098 164.33H29.8398V169.31H34.8098V164.33Z" fill="#F27541"/>
<path d="M34.8098 159.35H29.8398V164.33H34.8098V159.35Z" fill="#F27541"/>
<path d="M34.8098 154.37H29.8398V159.35H34.8098V154.37Z" fill="#F27541"/>
<path d="M34.8098 149.39H29.8398V154.37H34.8098V149.39Z" fill="#F27541"/>
<path d="M34.8098 144.41H29.8398V149.39H34.8098V144.41Z" fill="#F27541"/>
<path d="M34.8098 139.43H29.8398V144.41H34.8098V139.43Z" fill="#F27541"/>
<path d="M34.8098 134.45H29.8398V139.43H34.8098V134.45Z" fill="#F27541"/>
<path d="M34.8098 129.47H29.8398V134.45H34.8098V129.47Z" fill="#F27541"/>
<path d="M34.8098 124.49H29.8398V129.47H34.8098V124.49Z" fill="#F27541"/>
<path d="M34.8098 119.51H29.8398V124.49H34.8098V119.51Z" fill="#F27541"/>
<path d="M34.8098 114.53H29.8398V119.51H34.8098V114.53Z" fill="#F27541"/>
<path d="M34.8098 109.55H29.8398V114.53H34.8098V109.55Z" fill="#F27541"/>
<path d="M34.8098 104.57H29.8398V109.55H34.8098V104.57Z" fill="#F27541"/>
<path d="M34.8098 99.5901H29.8398V104.57H34.8098V99.5901Z" fill="#F27541"/>
<path d="M34.8098 94.6101H29.8398V99.5901H34.8098V94.6101Z" fill="#F27541"/>
<path d="M34.8098 89.6399H29.8398V94.6199H34.8098V89.6399Z" fill="#F27541"/>
<path d="M34.8098 84.6599H29.8398V89.6399H34.8098V84.6599Z" fill="#F27541"/>
<path d="M34.8098 79.6799H29.8398V84.6599H34.8098V79.6799Z" fill="#F27541"/>
<path d="M34.8098 74.7H29.8398V79.68H34.8098V74.7Z" fill="#F27541"/>
<path d="M34.8098 69.72H29.8398V74.7H34.8098V69.72Z" fill="#F27541"/>
<path d="M34.8098 64.74H29.8398V69.72H34.8098V64.74Z" fill="#F27541"/>
<path d="M34.8098 59.7598H29.8398V64.7398H34.8098V59.7598Z" fill="#F27541"/>
<path d="M34.8098 54.7798H29.8398V59.7598H34.8098V54.7798Z" fill="#F27541"/>
<path d="M34.8098 49.7998H29.8398V54.7798H34.8098V49.7998Z" fill="#F27541"/>
<path d="M34.8098 44.8198H29.8398V49.7998H34.8098V44.8198Z" fill="#F27541"/>
<path d="M34.8098 39.8398H29.8398V44.8198H34.8098V39.8398Z" fill="#F27541"/>
<path d="M34.8098 34.8599H29.8398V39.8399H34.8098V34.8599Z" fill="#F27541"/>
<path d="M34.8098 29.8799H29.8398V34.8599H34.8098V29.8799Z" fill="#F27541"/>
<path d="M34.8098 24.8999H29.8398V29.8799H34.8098V24.8999Z" fill="#F27541"/>
<path d="M34.8098 19.9199H29.8398V24.8999H34.8098V19.9199Z" fill="#F27541"/>
<path d="M34.8098 14.9399H29.8398V19.9199H34.8098V14.9399Z" fill="#F27541"/>
<path d="M34.8098 9.95996H29.8398V14.94H34.8098V9.95996Z" fill="#F27541"/>
<path d="M34.8098 4.97998H29.8398V9.95998H34.8098V4.97998Z" fill="#F27541"/>
<path d="M29.8401 209.15H24.8701V214.13H29.8401V209.15Z" fill="#F27541"/>
<path d="M29.8401 204.17H24.8701V209.15H29.8401V204.17Z" fill="#F27541"/>
<path d="M29.8401 199.19H24.8701V204.17H29.8401V199.19Z" fill="#F27541"/>
<path d="M29.8401 194.21H24.8701V199.19H29.8401V194.21Z" fill="#F27541"/>
<path d="M29.8401 189.23H24.8701V194.21H29.8401V189.23Z" fill="#F27541"/>
<path d="M29.8401 184.25H24.8701V189.23H29.8401V184.25Z" fill="#F27541"/>
<path d="M29.8401 179.27H24.8701V184.25H29.8401V179.27Z" fill="#F27541"/>
<path d="M29.8401 174.29H24.8701V179.27H29.8401V174.29Z" fill="#F27541"/>
<path d="M29.8401 169.31H24.8701V174.29H29.8401V169.31Z" fill="#F27541"/>
<path d="M29.8401 164.33H24.8701V169.31H29.8401V164.33Z" fill="#F27541"/>
<path d="M29.8401 159.35H24.8701V164.33H29.8401V159.35Z" fill="#F27541"/>
<path d="M29.8401 154.37H24.8701V159.35H29.8401V154.37Z" fill="#F27541"/>
<path d="M29.8401 149.39H24.8701V154.37H29.8401V149.39Z" fill="#F27541"/>
<path d="M29.8401 144.41H24.8701V149.39H29.8401V144.41Z" fill="#F27541"/>
<path d="M29.8401 139.43H24.8701V144.41H29.8401V139.43Z" fill="#F27541"/>
<path d="M29.8401 134.45H24.8701V139.43H29.8401V134.45Z" fill="#F27541"/>
<path d="M29.8401 129.47H24.8701V134.45H29.8401V129.47Z" fill="#F27541"/>
<path d="M29.8401 124.49H24.8701V129.47H29.8401V124.49Z" fill="#F27541"/>
<path d="M29.8401 119.51H24.8701V124.49H29.8401V119.51Z" fill="#F27541"/>
<path d="M29.8401 114.53H24.8701V119.51H29.8401V114.53Z" fill="#F27541"/>
<path d="M29.8401 109.55H24.8701V114.53H29.8401V109.55Z" fill="#F27541"/>
<path d="M29.8401 104.57H24.8701V109.55H29.8401V104.57Z" fill="#F27541"/>
<path d="M29.8401 99.5901H24.8701V104.57H29.8401V99.5901Z" fill="#F27541"/>
<path d="M29.8401 94.6101H24.8701V99.5901H29.8401V94.6101Z" fill="#F27541"/>
<path d="M29.8401 89.6399H24.8701V94.6199H29.8401V89.6399Z" fill="#F27541"/>
<path d="M29.8401 84.6599H24.8701V89.6399H29.8401V84.6599Z" fill="#F27541"/>
<path d="M29.8401 79.6799H24.8701V84.6599H29.8401V79.6799Z" fill="#F27541"/>
<path d="M29.8401 74.7H24.8701V79.68H29.8401V74.7Z" fill="#F27541"/>
<path d="M29.8401 69.72H24.8701V74.7H29.8401V69.72Z" fill="#F27541"/>
<path d="M29.8401 64.74H24.8701V69.72H29.8401V64.74Z" fill="#F27541"/>
<path d="M29.8401 59.7598H24.8701V64.7398H29.8401V59.7598Z" fill="#F27541"/>
<path d="M29.8401 54.7798H24.8701V59.7598H29.8401V54.7798Z" fill="#F27541"/>
<path d="M29.8401 49.7998H24.8701V54.7798H29.8401V49.7998Z" fill="#F27541"/>
<path d="M29.8401 44.8198H24.8701V49.7998H29.8401V44.8198Z" fill="#F27541"/>
<path d="M29.8401 39.8398H24.8701V44.8198H29.8401V39.8398Z" fill="#F27541"/>
<path d="M29.8401 34.8599H24.8701V39.8399H29.8401V34.8599Z" fill="#F27541"/>
<path d="M29.8401 29.8799H24.8701V34.8599H29.8401V29.8799Z" fill="#F27541"/>
<path d="M29.8401 24.8999H24.8701V29.8799H29.8401V24.8999Z" fill="#F27541"/>
<path d="M29.8401 19.9199H24.8701V24.8999H29.8401V19.9199Z" fill="#F27541"/>
<path d="M29.8401 14.9399H24.8701V19.9199H29.8401V14.9399Z" fill="#F27541"/>
<path d="M29.8401 9.95996H24.8701V14.94H29.8401V9.95996Z" fill="#F27541"/>
<path d="M29.8401 4.97998H24.8701V9.95998H29.8401V4.97998Z" fill="#F27541"/>
<path d="M29.8401 0H24.8701V4.98H29.8401V0Z" fill="#F27541"/>
<path d="M24.8601 159.35H19.8901V164.33H24.8601V159.35Z" fill="#010101"/>
<path d="M24.8601 154.37H19.8901V159.35H24.8601V154.37Z" fill="#010101"/>
<path d="M24.8601 149.39H19.8901V154.37H24.8601V149.39Z" fill="#010101"/>
<path d="M24.8601 89.6399H19.8901V94.6199H24.8601V89.6399Z" fill="#010101"/>
<path d="M24.8601 84.6599H19.8901V89.6399H24.8601V84.6599Z" fill="#010101"/>
<path d="M19.8899 174.29H14.9199V179.27H19.8899V174.29Z" fill="#010101"/>
<path d="M19.8899 164.33H14.9199V169.31H19.8899V164.33Z" fill="#010101"/>
<path d="M19.8899 159.35H14.9199V164.33H19.8899V159.35Z" fill="#010101"/>
<path d="M19.8899 154.37H14.9199V159.35H19.8899V154.37Z" fill="#010101"/>
<path d="M19.8899 149.39H14.9199V154.37H19.8899V149.39Z" fill="#010101"/>
<path d="M19.8899 94.6101H14.9199V99.5901H19.8899V94.6101Z" fill="#010101"/>
<path d="M19.8899 89.6399H14.9199V94.6199H19.8899V89.6399Z" fill="#010101"/>
<path d="M14.9202 174.29H9.9502V179.27H14.9202V174.29Z" fill="#010101"/>
<path d="M14.9202 169.31H9.9502V174.29H14.9202V169.31Z" fill="#010101"/>
<path d="M14.9202 164.33H9.9502V169.31H14.9202V164.33Z" fill="#010101"/>
<path d="M14.9202 159.35H9.9502V164.33H14.9202V159.35Z" fill="#010101"/>
<path d="M14.9202 154.37H9.9502V159.35H14.9202V154.37Z" fill="#010101"/>
<path d="M14.9202 99.5901H9.9502V104.57H14.9202V99.5901Z" fill="#010101"/>
<path d="M14.9202 94.6101H9.9502V99.5901H14.9202V94.6101Z" fill="#010101"/>
<path d="M9.94021 169.31H4.97021V174.29H9.94021V169.31Z" fill="#010101"/>
<path d="M9.94021 164.33H4.97021V169.31H9.94021V164.33Z" fill="#010101"/>
<path d="M9.94021 159.35H4.97021V164.33H9.94021V159.35Z" fill="#010101"/>
<path d="M9.94021 154.37H4.97021V159.35H9.94021V154.37Z" fill="#010101"/>
<path d="M9.94021 104.57H4.97021V109.55H9.94021V104.57Z" fill="#010101"/>
<path d="M4.97 164.33H0V169.31H4.97V164.33Z" fill="#010101"/>
<path d="M4.97 159.35H0V164.33H4.97V159.35Z" fill="#010101"/>
<path d="M230.93 163.11H226.03V168.02H230.93V163.11Z" fill="#F27541"/>
<path d="M230.93 158.19H226.03V163.11H230.93V158.19Z" fill="#F27541"/>
<path d="M226.03 168.02H221.12V172.93H226.03V168.02Z" fill="#F27541"/>
<path d="M226.03 163.11H221.12V168.02H226.03V163.11Z" fill="#F27541"/>
<path d="M226.03 158.19H221.12V163.11H226.03V158.19Z" fill="#F27541"/>
<path d="M226.03 153.28H221.12V158.19H226.03V153.28Z" fill="#F27541"/>
<path d="M226.03 104.16H221.12V109.07H226.03V104.16Z" fill="#F27541"/>
<path d="M221.11 172.93H216.21V177.84H221.11V172.93Z" fill="#F27541"/>
<path d="M221.11 168.02H216.21V172.93H221.11V168.02Z" fill="#F27541"/>
<path d="M221.11 163.11H216.21V168.02H221.11V163.11Z" fill="#F27541"/>
<path d="M221.11 158.19H216.21V163.11H221.11V158.19Z" fill="#F27541"/>
<path d="M221.11 153.28H216.21V158.19H221.11V153.28Z" fill="#F27541"/>
<path d="M221.11 99.24H216.21V104.16H221.11V99.24Z" fill="#F27541"/>
<path d="M221.11 94.3301H216.21V99.2401H221.11V94.3301Z" fill="#F27541"/>
<path d="M216.21 172.93H211.31V177.84H216.21V172.93Z" fill="#F27541"/>
<path d="M216.21 163.11H211.31V168.02H216.21V163.11Z" fill="#F27541"/>
<path d="M216.21 158.19H211.31V163.11H216.21V158.19Z" fill="#F27541"/>
<path d="M216.21 153.28H211.31V158.19H216.21V153.28Z" fill="#F27541"/>
<path d="M216.21 148.37H211.31V153.28H216.21V148.37Z" fill="#F27541"/>
<path d="M216.21 94.3301H211.31V99.2401H216.21V94.3301Z" fill="#F27541"/>
<path d="M216.21 89.4199H211.31V94.3299H216.21V89.4199Z" fill="#F27541"/>
<path d="M211.3 158.19H206.4V163.11H211.3V158.19Z" fill="#F27541"/>
<path d="M211.3 153.28H206.4V158.19H211.3V153.28Z" fill="#F27541"/>
<path d="M211.3 148.37H206.4V153.28H211.3V148.37Z" fill="#F27541"/>
<path d="M211.3 89.4199H206.4V94.3299H211.3V89.4199Z" fill="#F27541"/>
<path d="M211.3 84.51H206.4V89.42H211.3V84.51Z" fill="#F27541"/>
<path d="M206.4 207.32H201.49V212.23H206.4V207.32Z" fill="#010101"/>
<path d="M206.4 202.41H201.49V207.32H206.4V202.41Z" fill="#010101"/>
<path d="M206.4 197.49H201.49V202.41H206.4V197.49Z" fill="#010101"/>
<path d="M206.4 192.58H201.49V197.49H206.4V192.58Z" fill="#010101"/>
<path d="M206.4 187.67H201.49V192.58H206.4V187.67Z" fill="#010101"/>
<path d="M206.4 182.76H201.49V187.67H206.4V182.76Z" fill="#010101"/>
<path d="M206.4 177.84H201.49V182.76H206.4V177.84Z" fill="#010101"/>
<path d="M206.4 172.93H201.49V177.84H206.4V172.93Z" fill="#010101"/>
<path d="M206.4 168.02H201.49V172.93H206.4V168.02Z" fill="#010101"/>
<path d="M206.4 163.11H201.49V168.02H206.4V163.11Z" fill="#010101"/>
<path d="M206.4 158.19H201.49V163.11H206.4V158.19Z" fill="#010101"/>
<path d="M206.4 153.28H201.49V158.19H206.4V153.28Z" fill="#010101"/>
<path d="M206.4 148.37H201.49V153.28H206.4V148.37Z" fill="#010101"/>
<path d="M206.4 143.46H201.49V148.37H206.4V143.46Z" fill="#010101"/>
<path d="M206.4 138.54H201.49V143.46H206.4V138.54Z" fill="#010101"/>
<path d="M206.4 133.63H201.49V138.54H206.4V133.63Z" fill="#010101"/>
<path d="M206.4 128.72H201.49V133.63H206.4V128.72Z" fill="#010101"/>
<path d="M206.4 123.81H201.49V128.72H206.4V123.81Z" fill="#010101"/>
<path d="M206.4 118.9H201.49V123.81H206.4V118.9Z" fill="#010101"/>
<path d="M206.4 113.98H201.49V118.9H206.4V113.98Z" fill="#010101"/>
<path d="M206.4 109.07H201.49V113.98H206.4V109.07Z" fill="#010101"/>
<path d="M206.4 104.16H201.49V109.07H206.4V104.16Z" fill="#010101"/>
<path d="M206.4 99.24H201.49V104.16H206.4V99.24Z" fill="#010101"/>
<path d="M206.4 94.3301H201.49V99.2401H206.4V94.3301Z" fill="#010101"/>
<path d="M206.4 89.4199H201.49V94.3299H206.4V89.4199Z" fill="#010101"/>
<path d="M206.4 84.51H201.49V89.42H206.4V84.51Z" fill="#010101"/>
<path d="M206.4 79.6001H201.49V84.5101H206.4V79.6001Z" fill="#010101"/>
<path d="M206.4 74.6799H201.49V79.5999H206.4V74.6799Z" fill="#010101"/>
<path d="M206.4 69.77H201.49V74.68H206.4V69.77Z" fill="#010101"/>
<path d="M206.4 64.8601H201.49V69.7701H206.4V64.8601Z" fill="#010101"/>
<path d="M206.4 59.9399H201.49V64.8599H206.4V59.9399Z" fill="#010101"/>
<path d="M206.4 55.0298H201.49V59.9398H206.4V55.0298Z" fill="#010101"/>
<path d="M206.4 50.1201H201.49V55.0301H206.4V50.1201Z" fill="#010101"/>
<path d="M206.4 45.21H201.49V50.12H206.4V45.21Z" fill="#010101"/>
<path d="M206.4 40.2998H201.49V45.2098H206.4V40.2998Z" fill="#010101"/>
<path d="M206.4 35.3799H201.49V40.2999H206.4V35.3799Z" fill="#010101"/>
<path d="M206.4 30.4702H201.49V35.3802H206.4V30.4702Z" fill="#010101"/>
<path d="M206.4 25.5601H201.49V30.4701H206.4V25.5601Z" fill="#010101"/>
<path d="M206.4 20.6401H201.49V25.5601H206.4V20.6401Z" fill="#010101"/>
<path d="M206.4 15.73H201.49V20.63H206.4V15.73Z" fill="#010101"/>
<path d="M206.4 10.8198H201.49V15.7398H206.4V10.8198Z" fill="#010101"/>
<path d="M206.4 5.91016H201.49V10.8202H206.4V5.91016Z" fill="#010101"/>
<path d="M206.4 1H201.49V5.91H206.4V1Z" fill="#010101"/>
<path d="M201.49 202.41H196.59V207.32H201.49V202.41Z" fill="#010101"/>
<path d="M201.49 197.49H196.59V202.41H201.49V197.49Z" fill="#010101"/>
<path d="M201.49 192.58H196.59V197.49H201.49V192.58Z" fill="#010101"/>
<path d="M201.49 187.67H196.59V192.58H201.49V187.67Z" fill="#010101"/>
<path d="M201.49 182.76H196.59V187.67H201.49V182.76Z" fill="#010101"/>
<path d="M201.49 177.84H196.59V182.76H201.49V177.84Z" fill="#010101"/>
<path d="M201.49 172.93H196.59V177.84H201.49V172.93Z" fill="#010101"/>
<path d="M201.49 168.02H196.59V172.93H201.49V168.02Z" fill="#010101"/>
<path d="M201.49 163.11H196.59V168.02H201.49V163.11Z" fill="#010101"/>
<path d="M201.49 158.19H196.59V163.11H201.49V158.19Z" fill="#010101"/>
<path d="M201.49 153.28H196.59V158.19H201.49V153.28Z" fill="#010101"/>
<path d="M201.49 148.37H196.59V153.28H201.49V148.37Z" fill="#010101"/>
<path d="M201.49 143.46H196.59V148.37H201.49V143.46Z" fill="#010101"/>
<path d="M201.49 138.54H196.59V143.46H201.49V138.54Z" fill="#010101"/>
<path d="M201.49 133.63H196.59V138.54H201.49V133.63Z" fill="#010101"/>
<path d="M201.49 128.72H196.59V133.63H201.49V128.72Z" fill="#010101"/>
<path d="M201.49 123.81H196.59V128.72H201.49V123.81Z" fill="#010101"/>
<path d="M201.49 118.9H196.59V123.81H201.49V118.9Z" fill="#010101"/>
<path d="M201.49 113.98H196.59V118.9H201.49V113.98Z" fill="#010101"/>
<path d="M201.49 109.07H196.59V113.98H201.49V109.07Z" fill="#010101"/>
<path d="M201.49 104.16H196.59V109.07H201.49V104.16Z" fill="#010101"/>
<path d="M201.49 99.24H196.59V104.16H201.49V99.24Z" fill="#010101"/>
<path d="M201.49 94.3301H196.59V99.2401H201.49V94.3301Z" fill="#010101"/>
<path d="M201.49 89.4199H196.59V94.3299H201.49V89.4199Z" fill="#010101"/>
<path d="M201.49 84.51H196.59V89.42H201.49V84.51Z" fill="#010101"/>
<path d="M201.49 79.6001H196.59V84.5101H201.49V79.6001Z" fill="#010101"/>
<path d="M201.49 74.6799H196.59V79.5999H201.49V74.6799Z" fill="#010101"/>
<path d="M201.49 69.77H196.59V74.68H201.49V69.77Z" fill="#010101"/>
<path d="M201.49 64.8601H196.59V69.7701H201.49V64.8601Z" fill="#010101"/>
<path d="M201.49 59.9399H196.59V64.8599H201.49V59.9399Z" fill="#010101"/>
<path d="M201.49 55.0298H196.59V59.9398H201.49V55.0298Z" fill="#010101"/>
<path d="M201.49 50.1201H196.59V55.0301H201.49V50.1201Z" fill="#010101"/>
<path d="M201.49 45.21H196.59V50.12H201.49V45.21Z" fill="#010101"/>
<path d="M201.49 40.2998H196.59V45.2098H201.49V40.2998Z" fill="#010101"/>
<path d="M201.49 35.3799H196.59V40.2999H201.49V35.3799Z" fill="#010101"/>
<path d="M201.49 30.4702H196.59V35.3802H201.49V30.4702Z" fill="#010101"/>
<path d="M201.49 25.5601H196.59V30.4701H201.49V25.5601Z" fill="#010101"/>
<path d="M201.49 20.6401H196.59V25.5601H201.49V20.6401Z" fill="#010101"/>
<path d="M201.49 15.73H196.59V20.63H201.49V15.73Z" fill="#010101"/>
<path d="M201.49 10.8198H196.59V15.7398H201.49V10.8198Z" fill="#010101"/>
<path d="M201.49 5.91016H196.59V10.8202H201.49V5.91016Z" fill="#010101"/>
<path d="M196.58 197.49H191.68V202.41H196.58V197.49Z" fill="#010101"/>
<path d="M196.58 192.58H191.68V197.49H196.58V192.58Z" fill="#010101"/>
<path d="M196.58 187.67H191.68V192.58H196.58V187.67Z" fill="#010101"/>
<path d="M196.58 182.76H191.68V187.67H196.58V182.76Z" fill="#010101"/>
<path d="M196.58 177.84H191.68V182.76H196.58V177.84Z" fill="#010101"/>
<path d="M196.58 172.93H191.68V177.84H196.58V172.93Z" fill="#010101"/>
<path d="M196.58 168.02H191.68V172.93H196.58V168.02Z" fill="#010101"/>
<path d="M196.58 163.11H191.68V168.02H196.58V163.11Z" fill="#010101"/>
<path d="M196.58 158.19H191.68V163.11H196.58V158.19Z" fill="#010101"/>
<path d="M196.58 153.28H191.68V158.19H196.58V153.28Z" fill="#010101"/>
<path d="M196.58 148.37H191.68V153.28H196.58V148.37Z" fill="#010101"/>
<path d="M196.58 143.46H191.68V148.37H196.58V143.46Z" fill="#010101"/>
<path d="M196.58 138.54H191.68V143.46H196.58V138.54Z" fill="#010101"/>
<path d="M196.58 133.63H191.68V138.54H196.58V133.63Z" fill="#010101"/>
<path d="M196.58 128.72H191.68V133.63H196.58V128.72Z" fill="#010101"/>
<path d="M196.58 123.81H191.68V128.72H196.58V123.81Z" fill="#010101"/>
<path d="M196.58 118.9H191.68V123.81H196.58V118.9Z" fill="#010101"/>
<path d="M196.58 113.98H191.68V118.9H196.58V113.98Z" fill="#010101"/>
<path d="M196.58 109.07H191.68V113.98H196.58V109.07Z" fill="#010101"/>
<path d="M196.58 104.16H191.68V109.07H196.58V104.16Z" fill="#010101"/>
<path d="M196.58 99.24H191.68V104.16H196.58V99.24Z" fill="#010101"/>
<path d="M196.58 94.3301H191.68V99.2401H196.58V94.3301Z" fill="#010101"/>
<path d="M196.58 89.4199H191.68V94.3299H196.58V89.4199Z" fill="#010101"/>
<path d="M196.58 84.51H191.68V89.42H196.58V84.51Z" fill="#010101"/>
<path d="M196.58 79.6001H191.68V84.5101H196.58V79.6001Z" fill="#010101"/>
<path d="M196.58 74.6799H191.68V79.5999H196.58V74.6799Z" fill="#010101"/>
<path d="M196.58 69.77H191.68V74.68H196.58V69.77Z" fill="#010101"/>
<path d="M196.58 64.8601H191.68V69.7701H196.58V64.8601Z" fill="#010101"/>
<path d="M196.58 59.9399H191.68V64.8599H196.58V59.9399Z" fill="#010101"/>
<path d="M196.58 55.0298H191.68V59.9398H196.58V55.0298Z" fill="#010101"/>
<path d="M196.58 50.1201H191.68V55.0301H196.58V50.1201Z" fill="#010101"/>
<path d="M196.58 45.21H191.68V50.12H196.58V45.21Z" fill="#010101"/>
<path d="M196.58 40.2998H191.68V45.2098H196.58V40.2998Z" fill="#010101"/>
<path d="M196.58 35.3799H191.68V40.2999H196.58V35.3799Z" fill="#010101"/>
<path d="M196.58 30.4702H191.68V35.3802H196.58V30.4702Z" fill="#010101"/>
<path d="M196.58 25.5601H191.68V30.4701H196.58V25.5601Z" fill="#010101"/>
<path d="M196.58 20.6401H191.68V25.5601H196.58V20.6401Z" fill="#010101"/>
<path d="M196.58 15.73H191.68V20.63H196.58V15.73Z" fill="#010101"/>
<path d="M196.58 10.8198H191.68V15.7398H196.58V10.8198Z" fill="#010101"/>
<path d="M191.68 192.58H186.78V197.49H191.68V192.58Z" fill="#010101"/>
<path d="M191.68 187.67H186.78V192.58H191.68V187.67Z" fill="#010101"/>
<path d="M191.68 182.76H186.78V187.67H191.68V182.76Z" fill="#010101"/>
<path d="M191.68 177.84H186.78V182.76H191.68V177.84Z" fill="#010101"/>
<path d="M191.68 172.93H186.78V177.84H191.68V172.93Z" fill="#010101"/>
<path d="M191.68 168.02H186.78V172.93H191.68V168.02Z" fill="#010101"/>
<path d="M191.68 163.11H186.78V168.02H191.68V163.11Z" fill="#010101"/>
<path d="M191.68 158.19H186.78V163.11H191.68V158.19Z" fill="#010101"/>
<path d="M191.68 153.28H186.78V158.19H191.68V153.28Z" fill="#010101"/>
<path d="M191.68 148.37H186.78V153.28H191.68V148.37Z" fill="#010101"/>
<path d="M191.68 143.46H186.78V148.37H191.68V143.46Z" fill="#010101"/>
<path d="M191.68 138.54H186.78V143.46H191.68V138.54Z" fill="#010101"/>
<path d="M191.68 133.63H186.78V138.54H191.68V133.63Z" fill="#010101"/>
<path d="M191.68 128.72H186.78V133.63H191.68V128.72Z" fill="#010101"/>
<path d="M191.68 123.81H186.78V128.72H191.68V123.81Z" fill="#010101"/>
<path d="M191.68 118.9H186.78V123.81H191.68V118.9Z" fill="#010101"/>
<path d="M191.68 113.98H186.78V118.9H191.68V113.98Z" fill="#010101"/>
<path d="M191.68 109.07H186.78V113.98H191.68V109.07Z" fill="#010101"/>
<path d="M191.68 104.16H186.78V109.07H191.68V104.16Z" fill="#010101"/>
<path d="M191.68 99.24H186.78V104.16H191.68V99.24Z" fill="#010101"/>
<path d="M191.68 94.3301H186.78V99.2401H191.68V94.3301Z" fill="#010101"/>
<path d="M191.68 89.4199H186.78V94.3299H191.68V89.4199Z" fill="#010101"/>
<path d="M191.68 84.51H186.78V89.42H191.68V84.51Z" fill="#010101"/>
<path d="M191.68 79.6001H186.78V84.5101H191.68V79.6001Z" fill="#010101"/>
<path d="M191.68 74.6799H186.78V79.5999H191.68V74.6799Z" fill="#010101"/>
<path d="M191.68 69.77H186.78V74.68H191.68V69.77Z" fill="#010101"/>
<path d="M191.68 64.8601H186.78V69.7701H191.68V64.8601Z" fill="#010101"/>
<path d="M191.68 59.9399H186.78V64.8599H191.68V59.9399Z" fill="#010101"/>
<path d="M191.68 55.0298H186.78V59.9398H191.68V55.0298Z" fill="#010101"/>
<path d="M191.68 50.1201H186.78V55.0301H191.68V50.1201Z" fill="#010101"/>
<path d="M191.68 45.21H186.78V50.12H191.68V45.21Z" fill="#010101"/>
<path d="M191.68 40.2998H186.78V45.2098H191.68V40.2998Z" fill="#010101"/>
<path d="M191.68 35.3799H186.78V40.2999H191.68V35.3799Z" fill="#010101"/>
<path d="M191.68 30.4702H186.78V35.3802H191.68V30.4702Z" fill="#010101"/>
<path d="M191.68 25.5601H186.78V30.4701H191.68V25.5601Z" fill="#010101"/>
<path d="M191.68 20.6401H186.78V25.5601H191.68V20.6401Z" fill="#010101"/>
<path d="M191.68 15.73H186.78V20.63H191.68V15.73Z" fill="#010101"/>
<path d="M186.77 187.67H181.87V192.58H186.77V187.67Z" fill="#010101"/>
<path d="M186.77 182.76H181.87V187.67H186.77V182.76Z" fill="#010101"/>
<path d="M186.77 177.84H181.87V182.76H186.77V177.84Z" fill="#010101"/>
<path d="M186.77 172.93H181.87V177.84H186.77V172.93Z" fill="#010101"/>
<path d="M186.77 168.02H181.87V172.93H186.77V168.02Z" fill="#010101"/>
<path d="M186.77 163.11H181.87V168.02H186.77V163.11Z" fill="#010101"/>
<path d="M186.77 158.19H181.87V163.11H186.77V158.19Z" fill="#010101"/>
<path d="M186.77 153.28H181.87V158.19H186.77V153.28Z" fill="#010101"/>
<path d="M186.77 148.37H181.87V153.28H186.77V148.37Z" fill="#010101"/>
<path d="M186.77 143.46H181.87V148.37H186.77V143.46Z" fill="#010101"/>
<path d="M186.77 138.54H181.87V143.46H186.77V138.54Z" fill="#010101"/>
<path d="M186.77 133.63H181.87V138.54H186.77V133.63Z" fill="#010101"/>
<path d="M186.77 128.72H181.87V133.63H186.77V128.72Z" fill="#010101"/>
<path d="M186.77 123.81H181.87V128.72H186.77V123.81Z" fill="#010101"/>
<path d="M186.77 118.9H181.87V123.81H186.77V118.9Z" fill="#010101"/>
<path d="M186.77 113.98H181.87V118.9H186.77V113.98Z" fill="#010101"/>
<path d="M186.77 109.07H181.87V113.98H186.77V109.07Z" fill="#010101"/>
<path d="M186.77 104.16H181.87V109.07H186.77V104.16Z" fill="#010101"/>
<path d="M186.77 99.24H181.87V104.16H186.77V99.24Z" fill="#010101"/>
<path d="M186.77 94.3301H181.87V99.2401H186.77V94.3301Z" fill="#010101"/>
<path d="M186.77 89.4199H181.87V94.3299H186.77V89.4199Z" fill="#010101"/>
<path d="M186.77 84.51H181.87V89.42H186.77V84.51Z" fill="#010101"/>
<path d="M186.77 79.6001H181.87V84.5101H186.77V79.6001Z" fill="#010101"/>
<path d="M186.77 74.6799H181.87V79.5999H186.77V74.6799Z" fill="#010101"/>
<path d="M186.77 69.77H181.87V74.68H186.77V69.77Z" fill="#010101"/>
<path d="M186.77 64.8601H181.87V69.7701H186.77V64.8601Z" fill="#010101"/>
<path d="M186.77 59.9399H181.87V64.8599H186.77V59.9399Z" fill="#010101"/>
<path d="M186.77 55.0298H181.87V59.9398H186.77V55.0298Z" fill="#010101"/>
<path d="M186.77 50.1201H181.87V55.0301H186.77V50.1201Z" fill="#010101"/>
<path d="M186.77 45.21H181.87V50.12H186.77V45.21Z" fill="#010101"/>
<path d="M186.77 40.2998H181.87V45.2098H186.77V40.2998Z" fill="#010101"/>
<path d="M186.77 35.3799H181.87V40.2999H186.77V35.3799Z" fill="#010101"/>
<path d="M186.77 30.4702H181.87V35.3802H186.77V30.4702Z" fill="#010101"/>
<path d="M186.77 25.5601H181.87V30.4701H186.77V25.5601Z" fill="#010101"/>
<path d="M186.77 20.6401H181.87V25.5601H186.77V20.6401Z" fill="#010101"/>
<path d="M181.87 182.76H176.96V187.67H181.87V182.76Z" fill="#010101"/>
<path d="M181.87 177.84H176.96V182.76H181.87V177.84Z" fill="#010101"/>
<path d="M181.87 172.93H176.96V177.84H181.87V172.93Z" fill="#010101"/>
<path d="M181.87 168.02H176.96V172.93H181.87V168.02Z" fill="#010101"/>
<path d="M181.87 163.11H176.96V168.02H181.87V163.11Z" fill="#010101"/>
<path d="M181.87 158.19H176.96V163.11H181.87V158.19Z" fill="#010101"/>
<path d="M181.87 153.28H176.96V158.19H181.87V153.28Z" fill="#010101"/>
<path d="M181.87 148.37H176.96V153.28H181.87V148.37Z" fill="#010101"/>
<path d="M181.87 143.46H176.96V148.37H181.87V143.46Z" fill="#010101"/>
<path d="M181.87 138.54H176.96V143.46H181.87V138.54Z" fill="#010101"/>
<path d="M181.87 133.63H176.96V138.54H181.87V133.63Z" fill="#010101"/>
<path d="M181.87 128.72H176.96V133.63H181.87V128.72Z" fill="#F27541"/>
<path d="M181.87 123.81H176.96V128.72H181.87V123.81Z" fill="#F27541"/>
<path d="M181.87 118.9H176.96V123.81H181.87V118.9Z" fill="#F27541"/>
<path d="M181.87 113.98H176.96V118.9H181.87V113.98Z" fill="#F27541"/>
<path d="M181.87 109.07H176.96V113.98H181.87V109.07Z" fill="#F27541"/>
<path d="M181.87 104.16H176.96V109.07H181.87V104.16Z" fill="#F27541"/>
<path d="M181.87 99.24H176.96V104.16H181.87V99.24Z" fill="#F27541"/>
<path d="M181.87 94.3301H176.96V99.2401H181.87V94.3301Z" fill="#F27541"/>
<path d="M181.87 89.4199H176.96V94.3299H181.87V89.4199Z" fill="#F27541"/>
<path d="M181.87 84.51H176.96V89.42H181.87V84.51Z" fill="#F27541"/>
<path d="M181.87 79.6001H176.96V84.5101H181.87V79.6001Z" fill="#F27541"/>
<path d="M181.87 74.6799H176.96V79.5999H181.87V74.6799Z" fill="#F27541"/>
<path d="M181.87 69.77H176.96V74.68H181.87V69.77Z" fill="#F27541"/>
<path d="M181.87 64.8601H176.96V69.7701H181.87V64.8601Z" fill="#F27541"/>
<path d="M181.87 59.9399H176.96V64.8599H181.87V59.9399Z" fill="#010101"/>
<path d="M181.87 55.0298H176.96V59.9398H181.87V55.0298Z" fill="#F27541"/>
<path d="M181.87 50.1201H176.96V55.0301H181.87V50.1201Z" fill="#F27541"/>
<path d="M181.87 45.21H176.96V50.12H181.87V45.21Z" fill="#010101"/>
<path d="M181.87 40.2998H176.96V45.2098H181.87V40.2998Z" fill="#010101"/>
<path d="M181.87 35.3799H176.96V40.2999H181.87V35.3799Z" fill="#010101"/>
<path d="M181.87 30.4702H176.96V35.3802H181.87V30.4702Z" fill="#010101"/>
<path d="M181.87 25.5601H176.96V30.4701H181.87V25.5601Z" fill="#010101"/>
<path d="M176.96 177.84H172.06V182.76H176.96V177.84Z" fill="#010101"/>
<path d="M176.96 172.93H172.06V177.84H176.96V172.93Z" fill="#010101"/>
<path d="M176.96 168.02H172.06V172.93H176.96V168.02Z" fill="#010101"/>
<path d="M176.96 163.11H172.06V168.02H176.96V163.11Z" fill="#010101"/>
<path d="M176.96 158.19H172.06V163.11H176.96V158.19Z" fill="#010101"/>
<path d="M176.96 153.28H172.06V158.19H176.96V153.28Z" fill="#010101"/>
<path d="M176.96 148.37H172.06V153.28H176.96V148.37Z" fill="#010101"/>
<path d="M176.96 143.46H172.06V148.37H176.96V143.46Z" fill="#010101"/>
<path d="M176.96 138.54H172.06V143.46H176.96V138.54Z" fill="#010101"/>
<path d="M176.96 133.63H172.06V138.54H176.96V133.63Z" fill="#010101"/>
<path d="M176.96 128.72H172.06V133.63H176.96V128.72Z" fill="#F27541"/>
<path d="M176.96 123.81H172.06V128.72H176.96V123.81Z" fill="#F27541"/>
<path d="M176.96 118.9H172.06V123.81H176.96V118.9Z" fill="#F27541"/>
<path d="M176.96 113.98H172.06V118.9H176.96V113.98Z" fill="#F27541"/>
<path d="M176.96 109.07H172.06V113.98H176.96V109.07Z" fill="#F27541"/>
<path d="M176.96 104.16H172.06V109.07H176.96V104.16Z" fill="#F27541"/>
<path d="M176.96 99.24H172.06V104.16H176.96V99.24Z" fill="#F27541"/>
<path d="M176.96 94.3301H172.06V99.2401H176.96V94.3301Z" fill="#F27541"/>
<path d="M176.96 89.4199H172.06V94.3299H176.96V89.4199Z" fill="#F27541"/>
<path d="M176.96 84.51H172.06V89.42H176.96V84.51Z" fill="#F27541"/>
<path d="M176.96 79.6001H172.06V84.5101H176.96V79.6001Z" fill="#F27541"/>
<path d="M176.96 74.6799H172.06V79.5999H176.96V74.6799Z" fill="#F27541"/>
<path d="M176.96 69.77H172.06V74.68H176.96V69.77Z" fill="#F27541"/>
<path d="M176.96 64.8601H172.06V69.7701H176.96V64.8601Z" fill="#F27541"/>
<path d="M176.96 59.9399H172.06V64.8599H176.96V59.9399Z" fill="#F27541"/>
<path d="M176.96 55.0298H172.06V59.9398H176.96V55.0298Z" fill="#F27541"/>
<path d="M176.96 50.1201H172.06V55.0301H176.96V50.1201Z" fill="#F27541"/>
<path d="M176.96 45.21H172.06V50.12H176.96V45.21Z" fill="#F27541"/>
<path d="M176.96 40.2998H172.06V45.2098H176.96V40.2998Z" fill="#010101"/>
<path d="M176.96 35.3799H172.06V40.2999H176.96V35.3799Z" fill="#010101"/>
<path d="M176.96 30.4702H172.06V35.3802H176.96V30.4702Z" fill="#010101"/>
<path d="M172.05 172.93H167.15V177.84H172.05V172.93Z" fill="#010101"/>
<path d="M172.05 168.02H167.15V172.93H172.05V168.02Z" fill="#010101"/>
<path d="M172.05 163.11H167.15V168.02H172.05V163.11Z" fill="#010101"/>
<path d="M172.05 158.19H167.15V163.11H172.05V158.19Z" fill="#010101"/>
<path d="M172.05 153.28H167.15V158.19H172.05V153.28Z" fill="#010101"/>
<path d="M172.05 148.37H167.15V153.28H172.05V148.37Z" fill="#010101"/>
<path d="M172.05 143.46H167.15V148.37H172.05V143.46Z" fill="#010101"/>
<path d="M172.05 138.54H167.15V143.46H172.05V138.54Z" fill="#010101"/>
<path d="M172.05 133.63H167.15V138.54H172.05V133.63Z" fill="#F27541"/>
<path d="M172.05 128.72H167.15V133.63H172.05V128.72Z" fill="#F27541"/>
<path d="M172.05 123.81H167.15V128.72H172.05V123.81Z" fill="#F27541"/>
<path d="M172.05 118.9H167.15V123.81H172.05V118.9Z" fill="#F27541"/>
<path d="M172.05 113.98H167.15V118.9H172.05V113.98Z" fill="#F27541"/>
<path d="M172.05 109.07H167.15V113.98H172.05V109.07Z" fill="#010101"/>
<path d="M172.05 104.16H167.15V109.07H172.05V104.16Z" fill="#010101"/>
<path d="M172.05 99.24H167.15V104.16H172.05V99.24Z" fill="#F27541"/>
<path d="M172.05 94.3301H167.15V99.2401H172.05V94.3301Z" fill="#F27541"/>
<path d="M172.05 89.4199H167.15V94.3299H172.05V89.4199Z" fill="#F27541"/>
<path d="M172.05 84.51H167.15V89.42H172.05V84.51Z" fill="#F27541"/>
<path d="M172.05 79.6001H167.15V84.5101H172.05V79.6001Z" fill="#F27541"/>
<path d="M172.05 74.6799H167.15V79.5999H172.05V74.6799Z" fill="#F27541"/>
<path d="M172.05 69.77H167.15V74.68H172.05V69.77Z" fill="#F27541"/>
<path d="M172.05 64.8601H167.15V69.7701H172.05V64.8601Z" fill="#F27541"/>
<path d="M172.05 59.9399H167.15V64.8599H172.05V59.9399Z" fill="#F27541"/>
<path d="M172.05 55.0298H167.15V59.9398H172.05V55.0298Z" fill="#F27541"/>
<path d="M172.05 50.1201H167.15V55.0301H172.05V50.1201Z" fill="#F27541"/>
<path d="M172.05 45.21H167.15V50.12H172.05V45.21Z" fill="#F27541"/>
<path d="M172.05 40.2998H167.15V45.2098H172.05V40.2998Z" fill="#010101"/>
<path d="M172.05 35.3799H167.15V40.2999H172.05V35.3799Z" fill="#010101"/>
<path d="M167.15 168.02H162.25V172.93H167.15V168.02Z" fill="#010101"/>
<path d="M167.15 163.11H162.25V168.02H167.15V163.11Z" fill="#F27541"/>
<path d="M167.15 158.19H162.25V163.11H167.15V158.19Z" fill="#010101"/>
<path d="M167.15 153.28H162.25V158.19H167.15V153.28Z" fill="#010101"/>
<path d="M167.15 148.37H162.25V153.28H167.15V148.37Z" fill="#010101"/>
<path d="M167.15 143.46H162.25V148.37H167.15V143.46Z" fill="#F27541"/>
<path d="M167.15 138.54H162.25V143.46H167.15V138.54Z" fill="#F27541"/>
<path d="M167.15 133.63H162.25V138.54H167.15V133.63Z" fill="#F27541"/>
<path d="M167.15 128.72H162.25V133.63H167.15V128.72Z" fill="#F27541"/>
<path d="M167.15 123.81H162.25V128.72H167.15V123.81Z" fill="#F27541"/>
<path d="M167.15 118.9H162.25V123.81H167.15V118.9Z" fill="#F27541"/>
<path d="M167.15 113.98H162.25V118.9H167.15V113.98Z" fill="#010101"/>
<path d="M167.15 109.07H162.25V113.98H167.15V109.07Z" fill="#010101"/>
<path d="M167.15 104.16H162.25V109.07H167.15V104.16Z" fill="#010101"/>
<path d="M167.15 99.24H162.25V104.16H167.15V99.24Z" fill="#010101"/>
<path d="M167.15 94.3301H162.25V99.2401H167.15V94.3301Z" fill="#F27541"/>
<path d="M167.15 89.4199H162.25V94.3299H167.15V89.4199Z" fill="#F27541"/>
<path d="M167.15 84.51H162.25V89.42H167.15V84.51Z" fill="#F27541"/>
<path d="M167.15 79.6001H162.25V84.5101H167.15V79.6001Z" fill="#F27541"/>
<path d="M167.15 74.6799H162.25V79.5999H167.15V74.6799Z" fill="#F27541"/>
<path d="M167.15 69.77H162.25V74.68H167.15V69.77Z" fill="#010101"/>
<path d="M167.15 64.8601H162.25V69.7701H167.15V64.8601Z" fill="#F27541"/>
<path d="M167.15 59.9399H162.25V64.8599H167.15V59.9399Z" fill="#F27541"/>
<path d="M167.15 55.0298H162.25V59.9398H167.15V55.0298Z" fill="#F27541"/>
<path d="M167.15 50.1201H162.25V55.0301H167.15V50.1201Z" fill="#F27541"/>
<path d="M167.15 45.21H162.25V50.12H167.15V45.21Z" fill="#F27541"/>
<path d="M167.15 40.2998H162.25V45.2098H167.15V40.2998Z" fill="#010101"/>
<path d="M162.25 168.02H157.34V172.93H162.25V168.02Z" fill="#F27541"/>
<path d="M162.25 163.11H157.34V168.02H162.25V163.11Z" fill="#F27541"/>
<path d="M162.25 158.19H157.34V163.11H162.25V158.19Z" fill="#F27541"/>
<path d="M162.25 153.28H157.34V158.19H162.25V153.28Z" fill="#F27541"/>
<path d="M162.25 148.37H157.34V153.28H162.25V148.37Z" fill="#F27541"/>
<path d="M162.25 143.46H157.34V148.37H162.25V143.46Z" fill="#F27541"/>
<path d="M162.25 138.54H157.34V143.46H162.25V138.54Z" fill="#F27541"/>
<path d="M162.25 133.63H157.34V138.54H162.25V133.63Z" fill="#F27541"/>
<path d="M162.25 128.72H157.34V133.63H162.25V128.72Z" fill="#F27541"/>
<path d="M162.25 123.81H157.34V128.72H162.25V123.81Z" fill="#F27541"/>
<path d="M162.25 118.9H157.34V123.81H162.25V118.9Z" fill="#010101"/>
<path d="M162.25 113.98H157.34V118.9H162.25V113.98Z" fill="#010101"/>
<path d="M162.25 109.07H157.34V113.98H162.25V109.07Z" fill="#010101"/>
<path d="M162.25 104.16H157.34V109.07H162.25V104.16Z" fill="#010101"/>
<path d="M162.25 99.24H157.34V104.16H162.25V99.24Z" fill="#F27541"/>
<path d="M162.25 94.3301H157.34V99.2401H162.25V94.3301Z" fill="#F27541"/>
<path d="M162.25 89.4199H157.34V94.3299H162.25V89.4199Z" fill="#F27541"/>
<path d="M162.25 84.51H157.34V89.42H162.25V84.51Z" fill="#F27541"/>
<path d="M162.25 79.6001H157.34V84.5101H162.25V79.6001Z" fill="#F27541"/>
<path d="M162.25 74.6799H157.34V79.5999H162.25V74.6799Z" fill="#010101"/>
<path d="M162.25 69.77H157.34V74.68H162.25V69.77Z" fill="#010101"/>
<path d="M162.25 64.8601H157.34V69.7701H162.25V64.8601Z" fill="#010101"/>
<path d="M162.25 59.9399H157.34V64.8599H162.25V59.9399Z" fill="#F27541"/>
<path d="M162.25 55.0298H157.34V59.9398H162.25V55.0298Z" fill="#F27541"/>
<path d="M162.25 50.1201H157.34V55.0301H162.25V50.1201Z" fill="#F27541"/>
<path d="M162.25 45.21H157.34V50.12H162.25V45.21Z" fill="#010101"/>
<path d="M157.34 172.93H152.44V177.84H157.34V172.93Z" fill="#F27541"/>
<path d="M157.34 168.02H152.44V172.93H157.34V168.02Z" fill="#F27541"/>
<path d="M157.34 163.11H152.44V168.02H157.34V163.11Z" fill="#F27541"/>
<path d="M157.34 158.19H152.44V163.11H157.34V158.19Z" fill="#F27541"/>
<path d="M157.34 153.28H152.44V158.19H157.34V153.28Z" fill="#F27541"/>
<path d="M157.34 148.37H152.44V153.28H157.34V148.37Z" fill="#F27541"/>
<path d="M157.34 143.46H152.44V148.37H157.34V143.46Z" fill="#F27541"/>
<path d="M157.34 138.54H152.44V143.46H157.34V138.54Z" fill="#F27541"/>
<path d="M157.34 133.63H152.44V138.54H157.34V133.63Z" fill="#F27541"/>
<path d="M157.34 128.72H152.44V133.63H157.34V128.72Z" fill="#F27541"/>
<path d="M157.34 123.81H152.44V128.72H157.34V123.81Z" fill="#010101"/>
<path d="M157.34 118.9H152.44V123.81H157.34V118.9Z" fill="#010101"/>
<path d="M157.34 113.98H152.44V118.9H157.34V113.98Z" fill="#010101"/>
<path d="M157.34 109.07H152.44V113.98H157.34V109.07Z" fill="#010101"/>
<path d="M157.34 104.16H152.44V109.07H157.34V104.16Z" fill="#010101"/>
<path d="M157.34 99.24H152.44V104.16H157.34V99.24Z" fill="#F27541"/>
<path d="M157.34 94.3301H152.44V99.2401H157.34V94.3301Z" fill="#F27541"/>
<path d="M157.34 89.4199H152.44V94.3299H157.34V89.4199Z" fill="#F27541"/>
<path d="M157.34 84.51H152.44V89.42H157.34V84.51Z" fill="#010101"/>
<path d="M157.34 79.6001H152.44V84.5101H157.34V79.6001Z" fill="#010101"/>
<path d="M157.34 74.6799H152.44V79.5999H157.34V74.6799Z" fill="#010101"/>
<path d="M157.34 69.77H152.44V74.68H157.34V69.77Z" fill="#010101"/>
<path d="M157.34 64.8601H152.44V69.7701H157.34V64.8601Z" fill="#010101"/>
<path d="M157.34 59.9399H152.44V64.8599H157.34V59.9399Z" fill="#010101"/>
<path d="M157.34 55.0298H152.44V59.9398H157.34V55.0298Z" fill="#010101"/>
<path d="M157.34 50.1201H152.44V55.0301H157.34V50.1201Z" fill="#010101"/>
<path d="M152.44 172.93H147.53V177.84H152.44V172.93Z" fill="#F27541"/>
<path d="M152.44 168.02H147.53V172.93H152.44V168.02Z" fill="#F27541"/>
<path d="M152.44 163.11H147.53V168.02H152.44V163.11Z" fill="#F27541"/>
<path d="M152.44 158.19H147.53V163.11H152.44V158.19Z" fill="#F27541"/>
<path d="M152.44 153.28H147.53V158.19H152.44V153.28Z" fill="#F27541"/>
<path d="M152.44 148.37H147.53V153.28H152.44V148.37Z" fill="#F27541"/>
<path d="M152.44 143.46H147.53V148.37H152.44V143.46Z" fill="#F27541"/>
<path d="M152.44 138.54H147.53V143.46H152.44V138.54Z" fill="#F27541"/>
<path d="M152.44 99.24H147.53V104.16H152.44V99.24Z" fill="#F27541"/>
<path d="M152.44 94.3301H147.53V99.2401H152.44V94.3301Z" fill="#F27541"/>
<path d="M147.52 172.93H142.62V177.84H147.52V172.93Z" fill="#F27541"/>
<path d="M147.52 168.02H142.62V172.93H147.52V168.02Z" fill="#F27541"/>
<path d="M147.52 99.24H142.62V104.16H147.52V99.24Z" fill="#F27541"/>
<path d="M147.52 94.3301H142.62V99.2401H147.52V94.3301Z" fill="#F27541"/>
<path d="M142.62 172.93H137.72V177.84H142.62V172.93Z" fill="#F27541"/>
<path d="M142.62 99.24H137.72V104.16H142.62V99.24Z" fill="#F27541"/>
<path d="M142.62 94.3301H137.72V99.2401H142.62V94.3301Z" fill="#F27541"/>
<path d="M137.72 99.24H132.81V104.16H137.72V99.24Z" fill="#F27541"/>
<path d="M137.72 94.3301H132.81V99.2401H137.72V94.3301Z" fill="#F27541"/>
<path d="M132.8 99.24H127.9V104.16H132.8V99.24Z" fill="#F27541"/>
<path d="M132.8 94.3301H127.9V99.2401H132.8V94.3301Z" fill="#F27541"/>
<path d="M127.9 94.3301H123V99.2401H127.9V94.3301Z" fill="#F27541"/>
</svg>
