<?xml version="1.0" encoding="UTF-8"?><svg id="Layer_2" xmlns="http://www.w3.org/2000/svg" viewBox="0 0 77.64 109.56"><defs><style>.cls-1{fill:#f37442;}</style></defs><g id="Layer_1-2"><rect class="cls-1" x="42.35" y="45.94" width="3.53" height="3.53"/><rect class="cls-1" x="28.23" y="45.94" width="3.53" height="3.53"/><polygon class="cls-1" points="28.23 38.88 28.23 42.41 31.76 42.41 31.76 45.94 35.29 45.94 35.29 49.48 38.82 49.48 38.82 45.94 42.35 45.94 42.35 42.41 45.88 42.41 45.88 38.88 45.88 35.34 45.88 31.81 42.35 31.81 42.35 35.34 38.82 35.34 38.82 31.81 38.82 28.27 35.29 28.27 35.29 31.81 35.29 35.34 31.76 35.34 31.76 31.81 28.23 31.81 28.23 35.34 28.23 38.88"/><path class="cls-1" d="m74.11,45.94v-3.53h-3.53v-3.53h-3.53v-3.53h3.53v-3.53h3.53v-7.07h-3.53v-3.53h-3.53v-3.53h-10.59v3.53h-3.53v-3.53h3.53V7.07h-3.53v-3.53h-3.53V0h-7.06v3.53h-3.53v3.53h-3.53v-3.53h-3.53V0h-7.06v3.53h-3.53v3.53h-3.53v10.6h3.53v3.53h-3.53v-3.53H7.06v3.53h-3.53v7.07H0v3.53h3.53v3.53h3.53v3.53h-3.53v3.53H0v10.6h3.53v3.53h3.53v3.53h10.59v-3.53h3.53v3.53h-3.53v10.6h3.53v3.53h3.53v3.53h-3.53v-3.53h-3.53v-3.53h-3.53v-3.53h-3.53v3.53h-3.53v-3.53h-3.53v-3.53H0v24.74h3.53v7.07h3.53v3.53h7.06v3.53h7.06v3.53h7.06v3.53h17.65v-3.53h7.06v-3.53h7.06v-3.53h7.06v-3.53h3.53v-7.07h3.53v-24.74h-3.53v7.07h-3.53v-3.53h-3.53v3.53h-3.53v3.53h-7.06v3.53h-3.53v-3.53h3.53v-3.53h3.53v-10.6h-3.53v-3.53h7.06v3.53h7.06v-3.53h3.53v-3.53h3.53v-3.53h3.53v-3.53h-3.53Zm-42.35,31.81v-3.53h3.53v14.14h-3.53v-7.07h-3.53v-3.53h3.53Zm-10.59,17.67h-3.53v-3.53h-3.53v-3.53h-3.53v-7.07h3.53v3.53h3.53v3.53h3.53v3.53h7.06v3.53h3.53v3.53h-7.06v-3.53h-3.53Zm35.29-14.14h7.06v3.53h3.53v3.53h-7.06v3.53h-3.53v3.53h-7.06v3.53h-7.06v-3.53h3.53v-3.53h7.06v-3.53h-7.06v-3.53h7.06v-3.53h3.53Zm-10.59,0h-3.53v7.07h-3.53v-14.14h3.53v3.53h3.53v3.53Zm10.59-28.27h-3.53v-3.53h-7.06v7.07h3.53v7.07h-3.53v-3.53h-3.53v-3.53h-3.53v7.07h-3.53v-7.07h-3.53v3.53h-3.53v3.53h-3.53v-7.07h3.53v-7.07h-7.06v3.53h-7.06v-3.53h3.53v-7.07h3.53v-3.53h-7.06v-3.53h7.06v-3.53h-3.53v-3.53h-3.53v-3.53h7.06v7.07h7.06v-10.6h-3.53v-7.07h3.53v3.53h3.53v7.07h3.53v-10.6h3.53v10.6h3.53v-7.07h3.53v-3.53h3.53v7.07h-3.53v10.6h7.06v-7.07h7.06v7.07h-3.53v3.53h3.53v7.07h-7.06v3.53h7.06v7.07h-3.53Z"/><rect class="cls-1" x="52.93" y="35.34" width="3.53" height="3.53"/></g></svg>